<?xml version="1.0" encoding="UTF-8"?>
<svg version="1.1" xmlns="http://www.w3.org/2000/svg" width="640" height="495">
<path d="M0 0 C1.27746094 0.00193359 2.55492187 0.00386719 3.87109375 0.00585938 C4.86471924 0.01516479 4.86471924 0.01516479 5.87841797 0.0246582 C7.89954254 0.04290818 9.92020786 0.0451677 11.94140625 0.04492188 C21.84514672 0.08989345 21.84514672 0.08989345 24.69335938 0.8034668 C26.50470421 1.45219243 26.50470421 1.45219243 28.40625 0.23046875 C30.08766972 0.13415918 31.7728568 0.0997182 33.45703125 0.09765625 C34.46572266 0.09636719 35.47441406 0.09507812 36.51367188 0.09375 C38.10018555 0.09955078 38.10018555 0.09955078 39.71875 0.10546875 C40.76482422 0.10160156 41.81089844 0.09773438 42.88867188 0.09375 C44.40750977 0.09568359 44.40750977 0.09568359 45.95703125 0.09765625 C47.34402222 0.09934814 47.34402222 0.09934814 48.7590332 0.10107422 C51.4008026 0.23020248 53.83071676 0.64402172 56.40625 1.23046875 C56.40625 1.89046875 56.40625 2.55046875 56.40625 3.23046875 C57.045625 3.33359375 57.685 3.43671875 58.34375 3.54296875 C59.024375 3.76984375 59.705 3.99671875 60.40625 4.23046875 C60.90125 5.71546875 60.90125 5.71546875 61.40625 7.23046875 C62.06625 7.23046875 62.72625 7.23046875 63.40625 7.23046875 C63.40625 9.21046875 63.40625 11.19046875 63.40625 13.23046875 C64.06625 13.23046875 64.72625 13.23046875 65.40625 13.23046875 C65.40625 19.17046875 65.40625 25.11046875 65.40625 31.23046875 C64.74625 31.23046875 64.08625 31.23046875 63.40625 31.23046875 C63.40625 32.88046875 63.40625 34.53046875 63.40625 36.23046875 C62.74625 36.23046875 62.08625 36.23046875 61.40625 36.23046875 C61.78529208 39.52122871 61.78529208 39.52122871 63.40625 42.23046875 C63.44705783 44.23005239 63.44879356 46.23092129 63.40625 48.23046875 C64.06625 48.23046875 64.72625 48.23046875 65.40625 48.23046875 C65.40625 55.16046875 65.40625 62.09046875 65.40625 69.23046875 C66.06625 69.23046875 66.72625 69.23046875 67.40625 69.23046875 C67.38304687 68.410625 67.35984375 67.59078125 67.3359375 66.74609375 C67.31789063 65.6684375 67.29984375 64.59078125 67.28125 63.48046875 C67.25804687 62.413125 67.23484375 61.34578125 67.2109375 60.24609375 C67.40868937 57.19280495 68.03944277 55.8812464 69.40625 53.23046875 C69.69105806 51.15620625 69.89499224 49.06975436 70.03125 46.98046875 C70.10601562 45.9028125 70.18078125 44.82515625 70.2578125 43.71484375 C70.30679688 42.895 70.35578125 42.07515625 70.40625 41.23046875 C71.06625 41.23046875 71.72625 41.23046875 72.40625 41.23046875 C72.40625 36.28046875 72.40625 31.33046875 72.40625 26.23046875 C72.73625 26.23046875 73.06625 26.23046875 73.40625 26.23046875 C73.73625 21.94046875 74.06625 17.65046875 74.40625 13.23046875 C75.06625 13.23046875 75.72625 13.23046875 76.40625 13.23046875 C76.40625 9.60046875 76.40625 5.97046875 76.40625 2.23046875 C80.79417404 0.03650673 83.07006764 -0.00939149 87.90625 0.04296875 C89.87078125 0.05263672 89.87078125 0.05263672 91.875 0.0625 C95.40625 0.23046875 95.40625 0.23046875 99.40625 1.23046875 C99.40625 4.86046875 99.40625 8.49046875 99.40625 12.23046875 C100.06625 12.23046875 100.72625 12.23046875 101.40625 12.23046875 C101.40625 16.85046875 101.40625 21.47046875 101.40625 26.23046875 C102.06625 26.23046875 102.72625 26.23046875 103.40625 26.23046875 C103.40625 30.52046875 103.40625 34.81046875 103.40625 39.23046875 C104.06625 39.23046875 104.72625 39.23046875 105.40625 39.23046875 C105.53902344 40.30167969 105.67179687 41.37289062 105.80859375 42.4765625 C105.9867556 43.87372644 106.16515319 45.27086034 106.34375 46.66796875 C106.43076172 47.37501953 106.51777344 48.08207031 106.60742188 48.81054688 C106.78841191 52.31864843 106.78841191 52.31864843 108.40625 55.23046875 C108.47883946 57.41686328 108.48998783 59.60547264 108.46875 61.79296875 C108.45972656 62.99050781 108.45070313 64.18804687 108.44140625 65.421875 C108.42980469 66.34871094 108.41820312 67.27554688 108.40625 68.23046875 C109.06625 68.23046875 109.72625 68.23046875 110.40625 68.23046875 C110.40625 46.12046875 110.40625 24.01046875 110.40625 1.23046875 C114.10570999 -0.00268458 117.55392558 0.04639608 121.40625 0.04296875 C122.13070312 0.03072266 122.85515625 0.01847656 123.6015625 0.00585938 C127.41325298 -0.00468958 129.1598804 0.06622235 132.40625 2.23046875 C132.84765625 5.12890625 132.84765625 5.12890625 132.96875 8.60546875 C133.12580903 12.82226569 133.47137693 15.52635377 135.40625 19.23046875 C135.75 21.81640625 135.75 21.81640625 135.90625 24.60546875 C136.15870871 29.08661093 136.90933254 31.73971638 138.40625 36.23046875 C138.73625 31.28046875 139.06625 26.33046875 139.40625 21.23046875 C139.73625 21.23046875 140.06625 21.23046875 140.40625 21.23046875 C140.47972656 19.94462891 140.47972656 19.94462891 140.5546875 18.6328125 C141.34350553 6.5693368 141.34350553 6.5693368 143.40625 1.23046875 C146.55027481 -0.34154365 149.89572397 0.04600131 153.34375 0.04296875 C154.07271484 0.03072266 154.80167969 0.01847656 155.55273438 0.00585938 C159.3775891 -0.0046581 161.14981564 0.05951251 164.40625 2.23046875 C164.77374268 5.27357483 164.77374268 5.27357483 164.76269531 9.23461914 C164.76473969 9.95506912 164.76678406 10.6755191 164.76889038 11.4178009 C164.77190439 13.80483177 164.75340499 16.19117598 164.734375 18.578125 C164.73131862 20.23196746 164.72944158 21.88581248 164.72869873 23.53965759 C164.72409195 27.00741407 164.70965077 30.47493881 164.6875 33.94262695 C164.65919523 38.39737037 164.6482868 42.85193123 164.6438179 47.30675602 C164.63966996 50.7218561 164.6298581 54.13691893 164.61794281 57.55200005 C164.61222849 59.19512062 164.60747365 60.83824481 164.60367584 62.48137093 C164.59683431 64.77288298 164.58321271 67.06424756 164.56738281 69.35571289 C164.55714081 71.31523643 164.55714081 71.31523643 164.54669189 73.31434631 C164.40625 76.23046875 164.40625 76.23046875 163.40625 77.23046875 C161.07464945 77.32956177 158.73995058 77.36017379 156.40625 77.35546875 C155.1275 77.35804688 153.84875 77.360625 152.53125 77.36328125 C149.40625 77.23046875 149.40625 77.23046875 148.40625 76.23046875 C148.33311433 73.69997473 148.31377473 71.19742038 148.34375 68.66796875 C148.35051758 67.6015918 148.35051758 67.6015918 148.35742188 66.51367188 C148.36924136 64.75256862 148.38717737 62.99150839 148.40625 61.23046875 C147.74625 61.23046875 147.08625 61.23046875 146.40625 61.23046875 C146.42945313 62.21789062 146.45265625 63.2053125 146.4765625 64.22265625 C146.49460937 65.50398438 146.51265625 66.7853125 146.53125 68.10546875 C146.55445313 69.38164062 146.57765625 70.6578125 146.6015625 71.97265625 C146.40625 75.23046875 146.40625 75.23046875 144.40625 77.23046875 C141.1484375 77.42578125 141.1484375 77.42578125 137.28125 77.35546875 C135.35925781 77.32839844 135.35925781 77.32839844 133.3984375 77.30078125 C132.41101563 77.27757812 131.42359375 77.254375 130.40625 77.23046875 C130.40625 76.24046875 130.40625 75.25046875 130.40625 74.23046875 C129.74625 74.23046875 129.08625 74.23046875 128.40625 74.23046875 C128.07625 69.94046875 127.74625 65.65046875 127.40625 61.23046875 C127.34566406 62.21789062 127.28507813 63.2053125 127.22265625 64.22265625 C127.13886719 65.50398438 127.05507813 66.7853125 126.96875 68.10546875 C126.84693359 70.01972656 126.84693359 70.01972656 126.72265625 71.97265625 C126.40625 75.23046875 126.40625 75.23046875 125.40625 77.23046875 C121.15210377 77.25512497 116.89799502 77.27330774 112.64379883 77.28540039 C111.19554927 77.29043976 109.74730483 77.29727128 108.29907227 77.3059082 C106.22150412 77.31799122 104.14400303 77.32370086 102.06640625 77.328125 C100.81480713 77.33336182 99.56320801 77.33859863 98.27368164 77.34399414 C95.40625 77.23046875 95.40625 77.23046875 94.40625 76.23046875 C94.36544217 74.23088511 94.36370644 72.23001621 94.40625 70.23046875 C93.74625 70.23046875 93.08625 70.23046875 92.40625 70.23046875 C92.40625 68.58046875 92.40625 66.93046875 92.40625 65.23046875 C88.77625 65.23046875 85.14625 65.23046875 81.40625 65.23046875 C81.426875 67.02484375 81.4475 68.81921875 81.46875 70.66796875 C81.4900622 72.52212997 81.47851502 74.37759373 81.40625 76.23046875 C80.40625 77.23046875 80.40625 77.23046875 77.53881836 77.34399414 C76.28721924 77.33875732 75.03562012 77.33352051 73.74609375 77.328125 C72.74939415 77.32600258 72.74939415 77.32600258 71.7325592 77.32383728 C69.60291101 77.31822393 67.47336661 77.30566929 65.34375 77.29296875 C63.90299631 77.28795546 62.46224097 77.28339226 61.02148438 77.27929688 C57.48303898 77.2682502 53.94465461 77.25097667 50.40625 77.23046875 C49.15468469 74.72733812 49.23185829 72.90816859 49.16015625 70.109375 C49.12728516 69.09166016 49.09441406 68.07394531 49.06054688 67.02539062 C48.99946285 64.87445331 48.94215685 62.72340531 48.88867188 60.57226562 C48.85451172 59.55326172 48.82035156 58.53425781 48.78515625 57.484375 C48.7601001 56.54924072 48.73504395 55.61410645 48.70922852 54.65063477 C48.55709426 51.97243421 48.55709426 51.97243421 46.40625 49.23046875 C43.93125 49.72546875 43.93125 49.72546875 41.40625 50.23046875 C41.41148682 51.01284912 41.41672363 51.79522949 41.42211914 52.60131836 C41.44282106 56.12352708 41.45588838 59.64572305 41.46875 63.16796875 C41.47712891 64.39966797 41.48550781 65.63136719 41.49414062 66.90039062 C41.49736328 68.07021484 41.50058594 69.24003906 41.50390625 70.4453125 C41.50914307 71.5293335 41.51437988 72.61335449 41.51977539 73.73022461 C41.40625 76.23046875 41.40625 76.23046875 40.40625 77.23046875 C38.26230481 77.32964445 36.11498268 77.36017025 33.96875 77.35546875 C32.79441406 77.35804688 31.62007813 77.360625 30.41015625 77.36328125 C27.40625 77.23046875 27.40625 77.23046875 25.40625 76.23046875 C25.40625 55.77046875 25.40625 35.31046875 25.40625 14.23046875 C19.46625 14.56046875 13.52625 14.89046875 7.40625 15.23046875 C7.40625 20.51046875 7.40625 25.79046875 7.40625 31.23046875 C6.74625 31.56046875 6.08625 31.89046875 5.40625 32.23046875 C10.35625 32.23046875 15.30625 32.23046875 20.40625 32.23046875 C21.43391017 35.31344926 21.57223738 37.56177301 21.59375 40.79296875 C21.60792969 41.76363281 21.62210937 42.73429687 21.63671875 43.734375 C21.40625 46.23046875 21.40625 46.23046875 19.40625 48.23046875 C14.78625 48.23046875 10.16625 48.23046875 5.40625 48.23046875 C5.40625 57.80046875 5.40625 67.37046875 5.40625 77.23046875 C0.78625 77.23046875 -3.83375 77.23046875 -8.59375 77.23046875 C-10.59375 75.23046875 -10.59375 75.23046875 -10.83425903 72.21859741 C-10.82981781 70.92620148 -10.82537659 69.63380554 -10.82080078 68.30224609 C-10.82109283 67.58994339 -10.82138489 66.87764069 -10.82168579 66.14375305 C-10.82029016 63.78451441 -10.80471827 61.42558986 -10.7890625 59.06640625 C-10.78533319 57.43258843 -10.78248583 55.79876837 -10.78048706 54.16494751 C-10.7728441 49.86093999 -10.75318999 45.55706707 -10.7310791 41.25311279 C-10.7106349 36.8627708 -10.7014884 32.4724071 -10.69140625 28.08203125 C-10.66994466 19.46478193 -10.63580081 10.84764207 -10.59375 2.23046875 C-6.88110255 0.20953579 -4.25511619 -0.01496214 0 0 Z M41.40625 14.23046875 C41.40625 20.17046875 41.40625 26.11046875 41.40625 32.23046875 C43.38625 32.23046875 45.36625 32.23046875 47.40625 32.23046875 C47.40625 31.57046875 47.40625 30.91046875 47.40625 30.23046875 C48.06625 30.23046875 48.72625 30.23046875 49.40625 30.23046875 C49.48758791 28.31450907 49.54559367 26.39754943 49.59375 24.48046875 C49.62855469 23.413125 49.66335938 22.34578125 49.69921875 21.24609375 C49.37052367 17.86272573 48.93710066 16.49231359 46.40625 14.23046875 C44.75625 14.23046875 43.10625 14.23046875 41.40625 14.23046875 Z M86.40625 34.23046875 C85.40515485 37.54117713 85.30268866 40.53131644 85.34375 43.98046875 C85.35277344 44.9653125 85.36179687 45.95015625 85.37109375 46.96484375 C85.38269531 47.7125 85.39429688 48.46015625 85.40625 49.23046875 C84.41625 49.72546875 84.41625 49.72546875 83.40625 50.23046875 C85.71625 50.23046875 88.02625 50.23046875 90.40625 50.23046875 C90.73891291 44.02076102 89.85654331 39.9478198 87.40625 34.23046875 C87.07625 34.23046875 86.74625 34.23046875 86.40625 34.23046875 Z " fill="#000000" transform="translate(324.59375,267.76953125)"/>
<path d="M0 0 C0.99 0 1.98 0 3 0 C4.19256391 2.38512781 4.1242724 3.83179159 4.12304783 6.49402046 C4.12503888 7.44548616 4.12702993 8.39695185 4.12908131 9.37724984 C4.12616847 10.42976209 4.12325563 11.48227434 4.12025452 12.56668091 C4.12110894 13.679116 4.12196337 14.79155109 4.12284368 15.93769634 C4.12449964 19.69041386 4.1189752 23.44308734 4.11352539 27.19580078 C4.11324352 29.8758657 4.11335715 32.55592785 4.1139679 35.23599243 C4.11449303 41.01891669 4.11134735 46.8018297 4.10573006 52.58475113 C4.0976136 60.94595223 4.09499969 69.30714786 4.09374207 77.66835247 C4.09155178 91.23284354 4.08489231 104.7973286 4.07543945 118.36181641 C4.06626474 131.54085256 4.0591842 144.71988708 4.05493164 157.89892578 C4.05466892 158.71086313 4.05440619 159.52280048 4.05413551 160.35934199 C4.0528305 164.4324681 4.05156679 168.50559421 4.05032361 172.57872033 C4.03995171 206.38581791 4.02233401 240.19290822 4 274 C2.10804462 274.57273579 2.10804462 274.57273579 0 275 C-1.72871399 273.83622742 -1.72871399 273.83622742 -3 272 C-3.36076355 269.96882629 -3.36076355 269.96882629 -3.34057617 267.62036133 C-3.34034958 266.73967484 -3.34012299 265.85898834 -3.33988953 264.95161438 C-3.31666374 263.53117073 -3.31666374 263.53117073 -3.29296875 262.08203125 C-3.28872391 261.10965012 -3.28447906 260.13726898 -3.28010559 259.13542175 C-3.26330315 256.02750034 -3.22564779 252.92022566 -3.1875 249.8125 C-3.1724552 247.70638957 -3.15876644 245.60026898 -3.14648438 243.49414062 C-3.11339444 238.32917762 -3.06160109 233.16469849 -3 228 C-7.29 228 -11.58 228 -16 228 C-16 227.34 -16 226.68 -16 226 C-17.19625 226.0825 -18.3925 226.165 -19.625 226.25 C-24.13252498 226.27380735 -26.34549209 224.6217122 -30 222 C-33.23038842 221.20929452 -33.23038842 221.20929452 -36 221 C-36 220.34 -36 219.68 -36 219 C-36.99 219 -37.98 219 -39 219 C-39 218.34 -39 217.68 -39 217 C-40.32 217 -41.64 217 -43 217 C-43 216.34 -43 215.68 -43 215 C-65.77 215 -88.54 215 -112 215 C-112 203.12 -112 191.24 -112 179 C-111.34 179 -110.68 179 -110 179 C-110 160.52 -110 142.04 -110 123 C-110.66 123 -111.32 123 -112 123 C-112 111.12 -112 99.24 -112 87 C-109.36 86.67 -106.72 86.34 -104 86 C-103.67 82.7 -103.34 79.4 -103 76 C-97.90970056 75.9259579 -92.81971308 75.87144992 -87.72900391 75.83520508 C-85.99652651 75.8200991 -84.26408746 75.79961306 -82.53173828 75.77368164 C-80.04450022 75.73737679 -77.55776674 75.72029235 -75.0703125 75.70703125 C-74.29317902 75.69154739 -73.51604553 75.67606354 -72.71536255 75.66011047 C-70.53173828 75.65942383 -70.53173828 75.65942383 -67 76 C-64.5705484 79.6441774 -64.83820425 81.71241272 -65 86 C-63.68 86.33 -62.36 86.66 -61 87 C-61 85.68 -61 84.36 -61 83 C-60.34 83 -59.68 83 -59 83 C-58.67 81.35 -58.34 79.7 -58 78 C-57.34 78 -56.68 78 -56 78 C-56 76.68 -56 75.36 -56 74 C-55.34 74 -54.68 74 -54 74 C-53.855625 73.236875 -53.71125 72.47375 -53.5625 71.6875 C-53 69 -53 69 -52 66 C-51.34 66 -50.68 66 -50 66 C-49.9175 65.319375 -49.835 64.63875 -49.75 63.9375 C-48.77667472 60.1253093 -47.04192545 57.35929671 -45 54 C-44.34 54 -43.68 54 -43 54 C-43 52.35 -43 50.7 -43 49 C-42.34 49 -41.68 49 -41 49 C-41 48.34 -41 47.68 -41 47 C-28.46 47 -15.92 47 -3 47 C-3 32.48 -3 17.96 -3 3 C-2.01 2.67 -1.02 2.34 0 2 C0 1.34 0 0.68 0 0 Z M-36 54 C-36 54.66 -36 55.32 -36 56 C-36.66 56 -37.32 56 -38 56 C-40.43160605 59.36683915 -41 60.73350364 -41 65 C-41.66 65 -42.32 65 -43 65 C-43 66.32 -43 67.64 -43 69 C-43.66 69 -44.32 69 -45 69 C-45 70.32 -45 71.64 -45 73 C-45.66 73 -46.32 73 -47 73 C-49.35910353 77.2637281 -49.35910353 77.2637281 -50 82 C-50.66 82 -51.32 82 -52 82 C-52 83.32 -52 84.64 -52 86 C-52.99 86.495 -52.99 86.495 -54 87 C-50.37 87 -46.74 87 -43 87 C-43 86.34 -43 85.68 -43 85 C-42.401875 84.855625 -41.80375 84.71125 -41.1875 84.5625 C-39.43849596 84.1127561 -37.71322977 83.57107659 -36 83 C-35.67 82.34 -35.34 81.68 -35 81 C-32.71484375 80.1484375 -32.71484375 80.1484375 -29.9375 79.375 C-28.55884766 78.98441406 -28.55884766 78.98441406 -27.15234375 78.5859375 C-26.44207031 78.39257812 -25.73179687 78.19921875 -25 78 C-25 77.34 -25 76.68 -25 76 C-22.03 76 -19.06 76 -16 76 C-16 75.34 -16 74.68 -16 74 C-11.71 74 -7.42 74 -3 74 C-3 67.4 -3 60.8 -3 54 C-13.89 54 -24.78 54 -36 54 Z M-22 83 C-22 83.66 -22 84.32 -22 85 C-23.98 85 -25.96 85 -28 85 C-28 85.66 -28 86.32 -28 87 C-29.32 87 -30.64 87 -32 87 C-32 87.66 -32 88.32 -32 89 C-33.32 89 -34.64 89 -36 89 C-36.33 89.66 -36.66 90.32 -37 91 C-37.99 91.33 -38.98 91.66 -40 92 C-40 92.66 -40 93.32 -40 94 C-40.99 94 -41.98 94 -43 94 C-43 94.66 -43 95.32 -43 96 C-43.66 96 -44.32 96 -45 96 C-45 96.66 -45 97.32 -45 98 C-45.66 98 -46.32 98 -47 98 C-47 98.66 -47 99.32 -47 100 C-47.99 100.33 -48.98 100.66 -50 101 C-50 101.66 -50 102.32 -50 103 C-50.66 103 -51.32 103 -52 103 C-52 103.66 -52 104.32 -52 105 C-52.66 105 -53.32 105 -54 105 C-55.05589069 106.63183107 -56.0436126 108.30792999 -57 110 C-57.721875 111.051875 -58.44375 112.10375 -59.1875 113.1875 C-61.18056711 115.72253373 -61.18056711 115.72253373 -61 118 C-61.66 118 -62.32 118 -63 118 C-63 119.65 -63 121.3 -63 123 C-63.66 123 -64.32 123 -65 123 C-65 124.98 -65 126.96 -65 129 C-65.66 129 -66.32 129 -67 129 C-67.33 131.97 -67.66 134.94 -68 138 C-68.66 138 -69.32 138 -70 138 C-70.05796132 142.10410755 -70.09358313 146.20811016 -70.125 150.3125 C-70.14175781 151.47974609 -70.15851563 152.64699219 -70.17578125 153.84960938 C-70.18222656 154.96787109 -70.18867188 156.08613281 -70.1953125 157.23828125 C-70.20578613 158.26993408 -70.21625977 159.30158691 -70.22705078 160.36450195 C-70.19297515 163.23187592 -70.19297515 163.23187592 -68 166 C-67.39896659 168.21389829 -66.86324191 170.44602579 -66.375 172.6875 C-65.98441406 174.45673828 -65.98441406 174.45673828 -65.5859375 176.26171875 C-65.39257812 177.16535156 -65.19921875 178.06898438 -65 179 C-64.34 179 -63.68 179 -63 179 C-63 180.32 -63 181.64 -63 183 C-62.34 183 -61.68 183 -61 183 C-60.8865625 183.58652344 -60.773125 184.17304688 -60.65625 184.77734375 C-59.94890619 187.17304987 -59.01553616 188.59318412 -57.5 190.5625 C-55.76352292 192.82900642 -54.92509236 194.22472293 -54 197 C-53.34 197 -52.68 197 -52 197 C-52 197.66 -52 198.32 -52 199 C-51.34 199 -50.68 199 -50 199 C-50 199.66 -50 200.32 -50 201 C-46.67296922 204.91415386 -43.97360357 206.72768281 -39 208 C-39 208.66 -39 209.32 -39 210 C-38.01 210 -37.02 210 -36 210 C-36 210.66 -36 211.32 -36 212 C-34.68 212 -33.36 212 -32 212 C-32 212.66 -32 213.32 -32 214 C-28.58168085 216.5393228 -26.24223102 217.3636198 -22 217 C-22 217.66 -22 218.32 -22 219 C-19.69 219 -17.38 219 -15 219 C-15 219.66 -15 220.32 -15 221 C-11.04 221 -7.08 221 -3 221 C-3 219.02 -3 217.04 -3 215 C-6.63 214.67 -10.26 214.34 -14 214 C-14 213.34 -14 212.68 -14 212 C-15.98 211.67 -17.96 211.34 -20 211 C-20 210.67 -20 210.34 -20 210 C-22.31 210 -24.62 210 -27 210 C-27 209.34 -27 208.68 -27 208 C-28.269553 207.35165346 -29.54069706 206.70642185 -30.8125 206.0625 C-31.52019531 205.70285156 -32.22789062 205.34320313 -32.95703125 204.97265625 C-35.11810285 203.89269484 -35.11810285 203.89269484 -38 203 C-38 202.34 -38 201.68 -38 201 C-39.65 200.34 -41.3 199.68 -43 199 C-43 198.34 -43 197.68 -43 197 C-43.66 197 -44.32 197 -45 197 C-45 196.01 -45 195.02 -45 194 C-45.66 194 -46.32 194 -47 194 C-47 193.34 -47 192.68 -47 192 C-47.639375 191.360625 -48.27875 190.72125 -48.9375 190.0625 C-51 188 -51 188 -52 185 C-52.66 185 -53.32 185 -54 185 C-54 183.68 -54 182.36 -54 181 C-54.66 181 -55.32 181 -56 181 C-56.20496094 180.28972656 -56.40992188 179.57945312 -56.62109375 178.84765625 C-56.89050781 177.92855469 -57.15992188 177.00945312 -57.4375 176.0625 C-57.70433594 175.14597656 -57.97117187 174.22945313 -58.24609375 173.28515625 C-58.79026051 171.0597507 -58.79026051 171.0597507 -60 170 C-60.45459858 167.34536879 -60.70243238 164.67810862 -61 162 C-61.66 162 -62.32 162 -63 162 C-63 154.41 -63 146.82 -63 139 C-62.34 139 -61.68 139 -61 139 C-60.938125 138.0925 -60.87625 137.185 -60.8125 136.25 C-60.15193757 131.42888018 -58.10819966 127.18978934 -56.15625 122.76953125 C-55.20667563 120.49504399 -54.50469019 118.40301354 -54 116 C-53.34 116 -52.68 116 -52 116 C-50.08152136 113.12228205 -48.49920512 110.11373372 -47 107 C-46.34 107 -45.68 107 -45 107 C-45 106.34 -45 105.68 -45 105 C-44.34 105 -43.68 105 -43 105 C-43 104.34 -43 103.68 -43 103 C-42.443125 102.731875 -41.88625 102.46375 -41.3125 102.1875 C-38.78774666 100.89100504 -36.36285516 99.57523677 -34 98 C-34 97.34 -34 96.68 -34 96 C-33.401875 95.855625 -32.80375 95.71125 -32.1875 95.5625 C-30.43849596 95.1127561 -28.71322977 94.57107659 -27 94 C-27 93.34 -27 92.68 -27 92 C-25.865625 91.855625 -24.73125 91.71125 -23.5625 91.5625 C-20.19222799 91.38828522 -20.19222799 91.38828522 -19 90 C-16.34536879 89.54540142 -13.67810862 89.29756762 -11 89 C-11 88.34 -11 87.68 -11 87 C-8.36 87 -5.72 87 -3 87 C-3 84.69 -3 82.38 -3 80 C-9.59124644 80 -15.73104223 80.9992688 -22 83 Z M-96 83 C-96 84.32 -96 85.64 -96 87 C-88.74 87 -81.48 87 -74 87 C-74 85.68 -74 84.36 -74 83 C-81.26 83 -88.52 83 -96 83 Z M-106 94 C-106 101.92 -106 109.84 -106 118 C-94.12 118 -82.24 118 -70 118 C-70 117.34 -70 116.68 -70 116 C-69.34 116 -68.68 116 -68 116 C-67.505 114.515 -67.505 114.515 -67 113 C-66.34 112.67 -65.68 112.34 -65 112 C-65 110.35 -65 108.7 -65 107 C-64.34 107 -63.68 107 -63 107 C-63 106.34 -63 105.68 -63 105 C-62.34 105 -61.68 105 -61 105 C-59.08152136 102.12228205 -57.49920512 99.11373372 -56 96 C-55.34 96 -54.68 96 -54 96 C-54 95.34 -54 94.68 -54 94 C-71.16 94 -88.32 94 -106 94 Z M-11 94 C-11 94.66 -11 95.32 -11 96 C-13.31 96 -15.62 96 -18 96 C-18 96.66 -18 97.32 -18 98 C-19.65 98 -21.3 98 -23 98 C-23 98.66 -23 99.32 -23 100 C-25.97 100.99 -28.94 101.98 -32 103 C-32 103.66 -32 104.32 -32 105 C-32.66 105 -33.32 105 -34 105 C-34 105.66 -34 106.32 -34 107 C-34.66 107 -35.32 107 -36 107 C-36 107.66 -36 108.32 -36 109 C-36.99 109.33 -37.98 109.66 -39 110 C-39 110.66 -39 111.32 -39 112 C-39.66 112 -40.32 112 -41 112 C-41 112.66 -41 113.32 -41 114 C-41.66 114 -42.32 114 -43 114 C-43 114.66 -43 115.32 -43 116 C-43.66 116 -44.32 116 -45 116 C-45.83848804 117.45537568 -46.67063934 118.91440373 -47.5 120.375 C-47.9640625 121.18710938 -48.428125 121.99921875 -48.90625 122.8359375 C-50.15035859 124.89336874 -50.15035859 124.89336874 -50 127 C-50.66 127 -51.32 127 -52 127 C-52 129.31 -52 131.62 -52 134 C-52.66 134 -53.32 134 -54 134 C-54 136.64 -54 139.28 -54 142 C-54.66 142 -55.32 142 -56 142 C-56 147.94 -56 153.88 -56 160 C-55.34 160 -54.68 160 -54 160 C-54 162.64 -54 165.28 -54 168 C-53.34 168 -52.68 168 -52 168 C-52 169.98 -52 171.96 -52 174 C-51.34 174 -50.68 174 -50 174 C-49.731875 174.680625 -49.46375 175.36125 -49.1875 176.0625 C-47.83946694 179.39710809 -46.42463702 182.69743237 -45 186 C-44.34 186 -43.68 186 -43 186 C-43 186.66 -43 187.32 -43 188 C-42.34 188 -41.68 188 -41 188 C-41 188.66 -41 189.32 -41 190 C-40.34 190 -39.68 190 -39 190 C-39 190.66 -39 191.32 -39 192 C-37.35 192.66 -35.7 193.32 -34 194 C-34 194.99 -34 195.98 -34 197 C-32.68 197 -31.36 197 -30 197 C-30 197.66 -30 198.32 -30 199 C-29.01 199 -28.02 199 -27 199 C-27 199.66 -27 200.32 -27 201 C-25.68 201 -24.36 201 -23 201 C-23 201.66 -23 202.32 -23 203 C-21.68 203 -20.36 203 -19 203 C-19 203.66 -19 204.32 -19 205 C-17.65104264 205.51388852 -16.29543517 206.01032722 -14.9375 206.5 C-14.18339844 206.7784375 -13.42929687 207.056875 -12.65234375 207.34375 C-9.32287087 208.28021024 -9.32287087 208.28021024 -3 208 C-3 170.38 -3 132.76 -3 94 C-5.64 94 -8.28 94 -11 94 Z M-103 123 C-103 141.48 -103 159.96 -103 179 C-92.77 179 -82.54 179 -72 179 C-72 177.35 -72 175.7 -72 174 C-72.66 174 -73.32 174 -74 174 C-74 171.69 -74 169.38 -74 167 C-74.66 167 -75.32 167 -76 167 C-76 156.11 -76 145.22 -76 134 C-75.34 134 -74.68 134 -74 134 C-74 131.36 -74 128.72 -74 126 C-73.34 126 -72.68 126 -72 126 C-72 125.01 -72 124.02 -72 123 C-82.23 123 -92.46 123 -103 123 Z M-105 183 C-105.33 191.25 -105.66 199.5 -106 208 C-88.84 208 -71.68 208 -54 208 C-55.96227088 203.0943228 -56.17664853 202.7133462 -60 200 C-60.495 198.515 -60.495 198.515 -61 197 C-61.66 197 -62.32 197 -63 197 C-63 196.01 -63 195.02 -63 194 C-63.66 194 -64.32 194 -65 194 C-65 192.68 -65 191.36 -65 190 C-65.66 189.67 -66.32 189.34 -67 189 C-67.495 187.515 -67.495 187.515 -68 186 C-68.66 186 -69.32 186 -70 186 C-70 185.01 -70 184.02 -70 183 C-81.55 183 -93.1 183 -105 183 Z " fill="#000000" transform="translate(299,110)"/>
<path d="M0 0 C1.8871875 -0.02126953 1.8871875 -0.02126953 3.8125 -0.04296875 C7 0.1875 7 0.1875 9 2.1875 C9.47300992 3.77546188 9.93837022 5.36621566 10.359375 6.96875 C11.65522298 11.45680885 13.3700651 15.81199515 15 20.1875 C15.33 18.2075 15.66 16.2275 16 14.1875 C16.66 14.1875 17.32 14.1875 18 14.1875 C18 11.8775 18 9.5675 18 7.1875 C18.66 7.1875 19.32 7.1875 20 7.1875 C20 5.2075 20 3.2275 20 1.1875 C22.77081857 -0.19790928 25.04564351 0.03724372 28.14624023 0.01049805 C30.08351234 -0.00875481 30.08351234 -0.00875481 32.05992126 -0.02839661 C33.47614154 -0.03656244 34.89236614 -0.04400647 36.30859375 -0.05078125 C37.37590068 -0.05689454 37.37590068 -0.05689454 38.46476936 -0.06313133 C42.22886999 -0.08398674 45.99293418 -0.09829224 49.75708008 -0.10766602 C53.64910616 -0.11874601 57.54056292 -0.15316475 61.43238735 -0.19283772 C64.4220742 -0.21894772 67.41162402 -0.22735265 70.40141487 -0.23094749 C71.83638427 -0.23582596 73.27134706 -0.24747578 74.70620537 -0.26598549 C76.71211932 -0.29025892 78.71830954 -0.2870038 80.72436523 -0.2824707 C81.86638901 -0.28833694 83.00841278 -0.29420319 84.18504333 -0.30024719 C87 0.1875 87 0.1875 88.87391663 2.08308411 C90.7157126 5.52501817 90.19249609 8.33757815 90 12.1875 C90.66 12.1875 91.32 12.1875 92 12.1875 C92 14.8275 92 17.4675 92 20.1875 C92.66 20.1875 93.32 20.1875 94 20.1875 C94 21.8375 94 23.4875 94 25.1875 C94.66 25.1875 95.32 25.1875 96 25.1875 C95.95875 23.99125 95.9175 22.795 95.875 21.5625 C95.86825028 17.74215936 96.61553433 14.77082292 98 11.1875 C98.34976758 9.85838318 98.69096017 8.52667261 99 7.1875 C99.66 7.1875 100.32 7.1875 101 7.1875 C100.979375 6.218125 100.95875 5.24875 100.9375 4.25 C101 1.1875 101 1.1875 102 0.1875 C103.62127423 0.08888402 105.24682368 0.05951233 106.87109375 0.05810547 C107.90886963 0.05495331 108.94664551 0.05180115 110.01586914 0.04855347 C111.70957642 0.05158981 111.70957642 0.05158981 113.4375 0.0546875 C115.16311157 0.05325241 115.16311157 0.05325241 116.92358398 0.05178833 C119.36149144 0.05110631 121.7994007 0.0529621 124.23730469 0.05712891 C127.98376518 0.06247683 131.73010577 0.05718461 135.4765625 0.05078125 C137.83854193 0.05144203 140.20052129 0.05272318 142.5625 0.0546875 C143.69163818 0.05266327 144.82077637 0.05063904 145.98413086 0.04855347 C147.54079468 0.05328171 147.54079468 0.05328171 149.12890625 0.05810547 C150.04744385 0.05890106 150.96598145 0.05969666 151.91235352 0.06051636 C154 0.1875 154 0.1875 155 1.1875 C155.12712692 3.63838882 155.18520683 6.04860545 155.1875 8.5 C155.19974609 9.17740234 155.21199219 9.85480469 155.22460938 10.55273438 C155.23573375 14.34614609 154.91316003 16.92130664 153 20.1875 C152.61250787 22.51245277 152.27017161 24.84601268 152 27.1875 C151.34 27.1875 150.68 27.1875 150 27.1875 C150 30.1575 150 33.1275 150 36.1875 C149.34 36.1875 148.68 36.1875 148 36.1875 C148.061875 37.156875 148.12375 38.12625 148.1875 39.125 C148.1875 43.83647617 146.6234852 47.81657832 145 52.1875 C142.9260773 57.90295832 141.55178086 63.11791058 141 69.1875 C140.34 69.1875 139.68 69.1875 139 69.1875 C139 71.4975 139 73.8075 139 76.1875 C135.89936477 77.22104508 133.68555932 77.32114996 130.4375 77.3125 C129.46683594 77.31507813 128.49617187 77.31765625 127.49609375 77.3203125 C125 77.1875 125 77.1875 123 76.1875 C123 73.2175 123 70.2475 123 67.1875 C123.66 67.1875 124.32 67.1875 125 67.1875 C124.938125 66.23875 124.87625 65.29 124.8125 64.3125 C124.78189459 59.34422169 126.42424457 54.8491098 128 50.1875 C128.66 50.1875 129.32 50.1875 130 50.1875 C130 47.2175 130 44.2475 130 41.1875 C130.66 41.1875 131.32 41.1875 132 41.1875 C132 38.8775 132 36.5675 132 34.1875 C132.66 34.1875 133.32 34.1875 134 34.1875 C133.95875 32.99125 133.9175 31.795 133.875 30.5625 C133.86825028 26.74215936 134.61553433 23.77082292 136 20.1875 C136.34976758 18.85838318 136.69096017 17.52667261 137 16.1875 C137.66 16.1875 138.32 16.1875 139 16.1875 C139 15.5275 139 14.8675 139 14.1875 C131.74 14.1875 124.48 14.1875 117 14.1875 C116.01 11.2175 116.01 11.2175 115 8.1875 C114.67 10.4975 114.34 12.8075 114 15.1875 C113.34 15.1875 112.68 15.1875 112 15.1875 C112 17.4975 112 19.8075 112 22.1875 C111.34 22.1875 110.68 22.1875 110 22.1875 C110 24.4975 110 26.8075 110 29.1875 C109.34 29.1875 108.68 29.1875 108 29.1875 C107.67 32.1575 107.34 35.1275 107 38.1875 C106.34 38.1875 105.68 38.1875 105 38.1875 C105 40.4975 105 42.8075 105 45.1875 C104.34 45.1875 103.68 45.1875 103 45.1875 C103 55.4175 103 65.6475 103 76.1875 C99.93301363 77.20982879 97.71335122 77.3534049 94.5 77.375 C93.5409375 77.38917969 92.581875 77.40335937 91.59375 77.41796875 C89 77.1875 89 77.1875 86 75.1875 C85.58349609 72.96020508 85.58349609 72.96020508 85.5234375 70.20703125 C85.4925 69.20736328 85.4615625 68.20769531 85.4296875 67.17773438 C85.41164063 66.12908203 85.39359375 65.08042969 85.375 64 C85.14851835 54.55276962 85.14851835 54.55276962 84 45.1875 C83.67 45.1875 83.34 45.1875 83 45.1875 C83 42.5475 83 39.9075 83 37.1875 C82.34 37.1875 81.68 37.1875 81 37.1875 C80.87625 36.094375 80.7525 35.00125 80.625 33.875 C80.24535199 30.11368198 80.24535199 30.11368198 78 27.1875 C76.16740583 22.70782537 75.80704743 19.01131437 76 14.1875 C71.71 14.1875 67.42 14.1875 63 14.1875 C63 34.6475 63 55.1075 63 76.1875 C59.89936477 77.22104508 57.68555932 77.32114996 54.4375 77.3125 C53.46683594 77.31507813 52.49617188 77.31765625 51.49609375 77.3203125 C49 77.1875 49 77.1875 47 76.1875 C47 55.7275 47 35.2675 47 14.1875 C43.04 14.1875 39.08 14.1875 35 14.1875 C34.01 13.8575 33.02 13.5275 32 13.1875 C31.814375 14.7034375 31.814375 14.7034375 31.625 16.25 C31.01914665 20.06687612 30.12806088 23.50250112 29 27.1875 C28.34 27.1875 27.68 27.1875 27 27.1875 C27 29.1675 27 31.1475 27 33.1875 C26.34 33.1875 25.68 33.1875 25 33.1875 C25 36.1575 25 39.1275 25 42.1875 C25.66 42.1875 26.32 42.1875 27 42.1875 C27 44.1675 27 46.1475 27 48.1875 C27.66 48.1875 28.32 48.1875 29 48.1875 C29.268125 49.1775 29.53625 50.1675 29.8125 51.1875 C30.59655277 53.97398969 31.54760343 56.6266678 32.625 59.3125 C33.81611956 62.38906006 34.31285232 64.85040858 34 68.1875 C34.66 68.1875 35.32 68.1875 36 68.1875 C36 70.8275 36 73.4675 36 76.1875 C33.26922124 77.55288938 31.04439633 77.31981826 28 77.3125 C26.39125 77.31636719 26.39125 77.31636719 24.75 77.3203125 C22 77.1875 22 77.1875 20 76.1875 C20 74.8675 20 73.5475 20 72.1875 C19.34 72.1875 18.68 72.1875 18 72.1875 C18 69.8775 18 67.5675 18 65.1875 C17.34 65.1875 16.68 65.1875 16 65.1875 C16 62.8775 16 60.5675 16 58.1875 C15.34 58.1875 14.68 58.1875 14 58.1875 C13.67 57.5275 13.34 56.8675 13 56.1875 C12.34 58.4975 11.68 60.8075 11 63.1875 C10.34 63.1875 9.68 63.1875 9 63.1875 C9 65.1675 9 67.1475 9 69.1875 C8.34 69.1875 7.68 69.1875 7 69.1875 C7 71.4975 7 73.8075 7 76.1875 C3.89936477 77.22104508 1.68555932 77.32114996 -1.5625 77.3125 C-2.53316406 77.31507813 -3.50382812 77.31765625 -4.50390625 77.3203125 C-7 77.1875 -7 77.1875 -9 76.1875 C-9 74.2075 -9 72.2275 -9 70.1875 C-8.34 70.1875 -7.68 70.1875 -7 70.1875 C-6.67 67.8775 -6.34 65.5675 -6 63.1875 C-5.34 63.1875 -4.68 63.1875 -4 63.1875 C-4 60.8775 -4 58.5675 -4 56.1875 C-3.34 56.1875 -2.68 56.1875 -2 56.1875 C-2 54.2075 -2 52.2275 -2 50.1875 C-1.34 50.1875 -0.68 50.1875 0 50.1875 C-0.020625 49.218125 -0.04125 48.24875 -0.0625 47.25 C0 44.1875 0 44.1875 1 43.1875 C1.09851171 41.35634117 1.12972629 39.52130067 1.125 37.6875 C1.12757813 36.6871875 1.13015625 35.686875 1.1328125 34.65625 C1.27870382 32.24350378 1.27870382 32.24350378 0 31.1875 C-0.04080783 29.18791636 -0.04254356 27.18704746 0 25.1875 C-0.66 25.1875 -1.32 25.1875 -2 25.1875 C-2 22.8775 -2 20.5675 -2 18.1875 C-2.66 18.1875 -3.32 18.1875 -4 18.1875 C-4.268125 17.3625 -4.53625 16.5375 -4.8125 15.6875 C-5.92086409 12.42074267 -7.13769983 9.22307517 -8.4140625 6.01953125 C-9 4.1875 -9 4.1875 -9 1.1875 C-6.02958551 -0.29770725 -3.30235553 0.0169178 0 0 Z " fill="#000000" transform="translate(381,160.8125)"/>
<path d="M0 0 C0.67813248 -0.00095673 1.35626495 -0.00191345 2.0549469 -0.00289917 C3.48983859 -0.0035799 4.92473336 -0.00173304 6.35961914 0.00244141 C8.55426984 0.00778296 10.74871512 0.00249716 12.94335938 -0.00390625 C14.33724003 -0.00324529 15.73112057 -0.00196375 17.125 0 C18.39529053 0.00112793 19.66558105 0.00225586 20.97436523 0.00341797 C24.12890625 0.1328125 24.12890625 0.1328125 27.12890625 1.1328125 C27.12890625 5.4228125 27.12890625 9.7128125 27.12890625 14.1328125 C20.52890625 14.1328125 13.92890625 14.1328125 7.12890625 14.1328125 C7.12890625 20.0728125 7.12890625 26.0128125 7.12890625 32.1328125 C12.07890625 32.1328125 17.02890625 32.1328125 22.12890625 32.1328125 C22.12890625 36.4228125 22.12890625 40.7128125 22.12890625 45.1328125 C17.49187914 46.6784882 13.00418974 46.19016878 8.12890625 46.1328125 C7.79890625 51.7428125 7.46890625 57.3528125 7.12890625 63.1328125 C10.25413397 63.18659271 13.37844335 63.22637825 16.50390625 63.2578125 C17.39335938 63.27457031 18.2828125 63.29132813 19.19921875 63.30859375 C20.05 63.31503906 20.90078125 63.32148438 21.77734375 63.328125 C22.56286621 63.33859863 23.34838867 63.34907227 24.15771484 63.35986328 C26.36337125 63.31271377 26.36337125 63.31271377 28.12890625 61.1328125 C28.77142975 59.06407216 28.77142975 59.06407216 29.12890625 57.1328125 C29.78890625 57.1328125 30.44890625 57.1328125 31.12890625 57.1328125 C31.12890625 55.4828125 31.12890625 53.8328125 31.12890625 52.1328125 C31.78890625 52.1328125 32.44890625 52.1328125 33.12890625 52.1328125 C33.08765625 51.3490625 33.04640625 50.5653125 33.00390625 49.7578125 C33.12890625 47.1328125 33.12890625 47.1328125 35.12890625 45.1328125 C35.77142975 43.06407216 35.77142975 43.06407216 36.12890625 41.1328125 C36.78890625 41.1328125 37.44890625 41.1328125 38.12890625 41.1328125 C38.12890625 39.1528125 38.12890625 37.1728125 38.12890625 35.1328125 C38.78890625 35.1328125 39.44890625 35.1328125 40.12890625 35.1328125 C40.12890625 33.4828125 40.12890625 31.8328125 40.12890625 30.1328125 C40.78890625 30.1328125 41.44890625 30.1328125 42.12890625 30.1328125 C42.31453125 29.0809375 42.31453125 29.0809375 42.50390625 28.0078125 C43.1672897 24.95624863 44.1010258 22.07940312 45.12890625 19.1328125 C45.78890625 19.1328125 46.44890625 19.1328125 47.12890625 19.1328125 C47.12890625 17.4828125 47.12890625 15.8328125 47.12890625 14.1328125 C41.18890625 14.1328125 35.24890625 14.1328125 29.12890625 14.1328125 C29.03125 4.07421875 29.03125 4.07421875 29.12890625 1.1328125 C30.82908628 -0.56736753 32.9546076 0.00479314 35.22227478 -0.00613403 C35.9326741 -0.0041098 36.64307343 -0.00208557 37.375 0 C38.10131119 -0.00095673 38.82762238 -0.00191345 39.57594299 -0.00289917 C41.11516405 -0.00358094 42.65438796 -0.00172687 44.19360352 0.00244141 C46.55296282 0.00778207 48.91213109 0.00250035 51.27148438 -0.00390625 C52.76432334 -0.00324532 54.25716218 -0.00196384 55.75 0 C56.81256264 -0.00303635 56.81256264 -0.00303635 57.89659119 -0.00613403 C62.89899196 0.01785536 62.89899196 0.01785536 65.12890625 1.1328125 C65.682437 17.06219747 65.682437 17.06219747 62.12890625 23.1328125 C61.46890625 23.1328125 60.80890625 23.1328125 60.12890625 23.1328125 C60.12890625 24.4528125 60.12890625 25.7728125 60.12890625 27.1328125 C59.46890625 27.1328125 58.80890625 27.1328125 58.12890625 27.1328125 C58.12890625 29.1128125 58.12890625 31.0928125 58.12890625 33.1328125 C57.46890625 33.1328125 56.80890625 33.1328125 56.12890625 33.1328125 C56.12890625 34.7828125 56.12890625 36.4328125 56.12890625 38.1328125 C55.46890625 38.1328125 54.80890625 38.1328125 54.12890625 38.1328125 C53.94521484 39.19048828 53.94521484 39.19048828 53.7578125 40.26953125 C53.09485424 43.28784433 52.1471505 46.05170692 51.06640625 48.9453125 C50.52306641 50.40904297 50.52306641 50.40904297 49.96875 51.90234375 C49.69160156 52.63839844 49.41445313 53.37445313 49.12890625 54.1328125 C48.46890625 54.1328125 47.80890625 54.1328125 47.12890625 54.1328125 C47.17015625 54.8753125 47.21140625 55.6178125 47.25390625 56.3828125 C47.12346987 59.25241296 46.47438275 60.65374556 45.12890625 63.1328125 C45.98440063 63.12495728 45.98440063 63.12495728 46.85717773 63.11694336 C49.42690948 63.09623029 51.99662372 63.0831706 54.56640625 63.0703125 C55.9131543 63.05774414 55.9131543 63.05774414 57.28710938 63.04492188 C58.14111328 63.04169922 58.99511719 63.03847656 59.875 63.03515625 C60.66575928 63.02991943 61.45651855 63.02468262 62.27124023 63.01928711 C64.12890625 63.1328125 64.12890625 63.1328125 65.12890625 64.1328125 C65.22764441 66.13080822 65.25862424 68.13238408 65.25390625 70.1328125 C65.25777344 71.7725 65.25777344 71.7725 65.26171875 73.4453125 C65.12890625 76.1328125 65.12890625 76.1328125 64.12890625 77.1328125 C61.85898738 77.22721228 59.58608658 77.25023476 57.31420898 77.24633789 C56.22864385 77.24651869 56.22864385 77.24651869 55.12114811 77.24670315 C52.76823462 77.24595413 50.4153994 77.23832643 48.0625 77.23046875 C46.61397337 77.2289993 45.16544621 77.22797861 43.71691895 77.22741699 C38.33340664 77.22216451 32.94990568 77.20820342 27.56640625 77.1953125 C15.54203125 77.1746875 3.51765625 77.1540625 -8.87109375 77.1328125 C-8.87109375 52.0528125 -8.87109375 26.9728125 -8.87109375 1.1328125 C-5.92508515 -0.3401918 -3.28500963 0.00291945 0 0 Z " fill="#000000" transform="translate(501.87109375,267.8671875)"/>
<path d="M0 0 C6.68823797 -0.41801487 11.75326596 1.05195958 17.5 4.5 C17.995 4.995 18.49 5.49 19 6 C19 6.99 19 7.98 19 9 C19.66 9 20.32 9 21 9 C21 10.65 21 12.3 21 14 C21.66 14 22.32 14 23 14 C23.05391993 15.79133978 23.09275571 17.58313899 23.125 19.375 C23.14820313 20.37273437 23.17140625 21.37046875 23.1953125 22.3984375 C23 25 23 25 21 27 C18.25 27.30078125 18.25 27.30078125 15 27.3125 C13.9275 27.32925781 12.855 27.34601563 11.75 27.36328125 C10.8425 27.24339844 9.935 27.12351563 9 27 C6.43383368 23.15075052 6.44902324 20.5650696 6 16 C4.35 16 2.7 16 1 16 C1.14230808 17.41702513 1.28900746 18.8336096 1.4375 20.25 C1.55931641 21.43335938 1.55931641 21.43335938 1.68359375 22.640625 C1.97634993 24.82364639 2.42064419 26.8773182 3 29 C3.66 29 4.32 29 5 29 C7.625 31.375 7.625 31.375 10 34 C10 34.66 10 35.32 10 36 C10.66 36 11.32 36 12 36 C12 36.66 12 37.32 12 38 C12.66 38 13.32 38 14 38 C14 38.66 14 39.32 14 40 C14.66 40 15.32 40 16 40 C17.625 41.25 17.625 41.25 19 43 C19 44.32 19 45.64 19 47 C19.66 47 20.32 47 21 47 C21 48.65 21 50.3 21 52 C21.66 52 22.32 52 23 52 C23 56.95 23 61.9 23 67 C22.34 67 21.68 67 21 67 C21 68.98 21 70.96 21 73 C20.34 73 19.68 73 19 73 C18.505 74.485 18.505 74.485 18 76 C17.34 76 16.68 76 16 76 C16 76.66 16 77.32 16 78 C9.80142647 81.23403836 3.6465737 82.4386189 -3.1953125 80.3203125 C-4.83209911 79.62451252 -6.42317252 78.8226926 -8 78 C-8 77.34 -8 76.68 -8 76 C-8.66 76 -9.32 76 -10 76 C-10 75.34 -10 74.68 -10 74 C-10.99 73.67 -11.98 73.34 -13 73 C-15.52775351 69.20836973 -15.22443035 66.19125969 -15.125 61.8125 C-15.11597656 61.06291016 -15.10695313 60.31332031 -15.09765625 59.54101562 C-15.07412578 57.69387346 -15.03825561 55.84689588 -15 54 C-10.38 54 -5.76 54 -1 54 C-1 56.64 -1 59.28 -1 62 C-0.34 62 0.32 62 1 62 C1 62.99 1 63.98 1 65 C2.65 64.34 4.3 63.68 6 63 C6.08004482 59.4780279 6.04005702 56.38018531 5 53 C4.34 53 3.68 53 3 53 C3 52.34 3 51.68 3 51 C2.34 51 1.68 51 1 51 C1 50.34 1 49.68 1 49 C0.34 49 -0.32 49 -1 49 C-1 48.34 -1 47.68 -1 47 C-1.66 47 -2.32 47 -3 47 C-3 46.34 -3 45.68 -3 45 C-3.99 44.67 -4.98 44.34 -6 44 C-6 43.34 -6 42.68 -6 42 C-6.66 42 -7.32 42 -8 42 C-10 39 -10 39 -10 36 C-10.99 35.67 -11.98 35.34 -13 35 C-13 33.68 -13 32.36 -13 31 C-13.66 31 -14.32 31 -15 31 C-15 24.73 -15 18.46 -15 12 C-14.34 12 -13.68 12 -13 12 C-12.9175 11.21625 -12.835 10.4325 -12.75 9.625 C-12 7 -12 7 -9.9375 5.6875 C-8.9784375 5.3471875 -8.9784375 5.3471875 -8 5 C-8 4.34 -8 3.68 -8 3 C-5.29120665 1.64560332 -2.99066732 1.93498549 0 2 C0 1.34 0 0.68 0 0 Z " fill="#000000" transform="translate(329,159)"/>
<path d="M0 0 C1.32 0 2.64 0 4 0 C4 2.97 4 5.94 4 9 C3.34 9 2.68 9 2 9 C2 10.32 2 11.64 2 13 C1.34 13 0.68 13 0 13 C0 13.66 0 14.32 0 15 C-0.66 15 -1.32 15 -2 15 C-2.33 15.99 -2.66 16.98 -3 18 C-3.66 18 -4.32 18 -5 18 C-5.144375 18.61875 -5.28875 19.2375 -5.4375 19.875 C-6 22 -6 22 -7 24 C-7.66 24 -8.32 24 -9 24 C-9.268125 24.639375 -9.53625 25.27875 -9.8125 25.9375 C-11 28 -11 28 -14 29 C-14 29.66 -14 30.32 -14 31 C-14.66 31 -15.32 31 -16 31 C-16 31.66 -16 32.32 -16 33 C-16.66 33 -17.32 33 -18 33 C-18.268125 33.598125 -18.53625 34.19625 -18.8125 34.8125 C-19.99917406 36.99847854 -21.09599113 38.41332594 -23 40 C-23.66 40 -24.32 40 -25 40 C-25 40.66 -25 41.32 -25 42 C-25.66 42 -26.32 42 -27 42 C-27.226875 42.78375 -27.45375 43.5675 -27.6875 44.375 C-29 47 -29 47 -31.625 48.3125 C-32.40875 48.539375 -33.1925 48.76625 -34 49 C-34 49.66 -34 50.32 -34 51 C-34.66 51 -35.32 51 -36 51 C-36 51.66 -36 52.32 -36 53 C-38.5614657 55.29648649 -39.47967572 56 -43 56 C-43 56.66 -43 57.32 -43 58 C-43.66 58 -44.32 58 -45 58 C-45 58.66 -45 59.32 -45 60 C-45.9075 60.4125 -46.815 60.825 -47.75 61.25 C-51.01895698 62.80943248 -51.01895698 62.80943248 -53.1875 65.1875 C-53.785625 65.785625 -54.38375 66.38375 -55 67 C-55.99 67 -56.98 67 -58 67 C-58 67.66 -58 68.32 -58 69 C-59.32 69 -60.64 69 -62 69 C-62 69.66 -62 70.32 -62 71 C-62.99 71 -63.98 71 -65 71 C-65 71.66 -65 72.32 -65 73 C-66.65 73.33 -68.3 73.66 -70 74 C-70 74.66 -70 75.32 -70 76 C-73 78 -73 78 -77 78 C-77 78.66 -77 79.32 -77 80 C-78.98 80 -80.96 80 -83 80 C-83.495 81.485 -83.495 81.485 -84 83 C-86.98459129 84.95542188 -88.26414791 85 -92 85 C-92 85.66 -92 86.32 -92 87 C-93.65 87 -95.3 87 -97 87 C-97 87.66 -97 88.32 -97 89 C-99.31 89 -101.62 89 -104 89 C-104 89.66 -104 90.32 -104 91 C-109.36000789 93.25684543 -113.1977825 94.36263859 -119 94 C-119 94.66 -119 95.32 -119 96 C-121.31 96 -123.62 96 -126 96 C-126 96.66 -126 97.32 -126 98 C-130.29 98 -134.58 98 -139 98 C-139 98.66 -139 99.32 -139 100 C-151.85648324 102.63722733 -164.8536676 104.20658871 -178 103 C-179 102 -179 102 -179.0625 98.9375 C-179.041875 97.968125 -179.02125 96.99875 -179 96 C-178.36191406 95.93941406 -177.72382813 95.87882812 -177.06640625 95.81640625 C-176.24011719 95.73261719 -175.41382813 95.64882813 -174.5625 95.5625 C-173.73878906 95.48128906 -172.91507812 95.40007812 -172.06640625 95.31640625 C-170.01337975 95.21069185 -170.01337975 95.21069185 -169 94 C-167.24624345 93.78412998 -165.48494622 93.62882531 -163.72265625 93.5 C-162.65208984 93.4175 -161.58152344 93.335 -160.47851562 93.25 C-159.35123047 93.1675 -158.22394531 93.085 -157.0625 93 C-154.84476945 92.8371374 -152.62730101 92.67065215 -150.41015625 92.5 C-148.92721069 92.39171875 -148.92721069 92.39171875 -147.41430664 92.28125 C-144.99216271 92.13804592 -144.99216271 92.13804592 -143 91 C-140.66922657 90.69208131 -138.33758104 90.49104726 -135.99609375 90.28125 C-134.00416869 90.20467988 -134.00416869 90.20467988 -133 89 C-131.31391034 88.92794489 -129.62499341 88.91613932 -127.9375 88.9375 C-126.55884766 88.95103516 -126.55884766 88.95103516 -125.15234375 88.96484375 C-124.08693359 88.98224609 -124.08693359 88.98224609 -123 89 C-123 88.34 -123 87.68 -123 87 C-120.69 87 -118.38 87 -116 87 C-116 86.34 -116 85.68 -116 85 C-114.2675 84.5978125 -114.2675 84.5978125 -112.5 84.1875 C-109.48028403 83.44327922 -106.64019122 82.52129764 -103.75 81.375 C-100 80 -100 80 -96 80 C-96 79.34 -96 78.68 -96 78 C-94.68 78 -93.36 78 -92 78 C-92 77.34 -92 76.68 -92 76 C-90.35 76 -88.7 76 -87 76 C-87 75.34 -87 74.68 -87 74 C-83.27034861 71.96564469 -81.33094958 71 -77 71 C-77 70.34 -77 69.68 -77 69 C-73.91190305 67.23537317 -72.76687864 67 -69 67 C-69 66.34 -69 65.68 -69 65 C-66.4385343 62.70351351 -65.52032428 62 -62 62 C-62 61.34 -62 60.68 -62 60 C-60.68 60 -59.36 60 -58 60 C-58 59.34 -58 58.68 -58 58 C-55 56 -55 56 -52 56 C-51.67 55.01 -51.34 54.02 -51 53 C-50.34 53 -49.68 53 -49 53 C-49 52.34 -49 51.68 -49 51 C-46 49 -46 49 -43 49 C-43 48.34 -43 47.68 -43 47 C-37.52380952 42 -37.52380952 42 -35 42 C-35 41.34 -35 40.68 -35 40 C-34.34 40 -33.68 40 -33 40 C-33 39.34 -33 38.68 -33 38 C-32.34 38 -31.68 38 -31 38 C-31 37.34 -31 36.68 -31 36 C-30.34 36 -29.68 36 -29 36 C-28.773125 35.443125 -28.54625 34.88625 -28.3125 34.3125 C-26.62449964 31.33840412 -24.53323483 29.27991135 -22 27 C-21.34 27 -20.68 27 -20 27 C-19.01 24.525 -19.01 24.525 -18 22 C-17.34 22 -16.68 22 -16 22 C-16 21.34 -16 20.68 -16 20 C-15.34 20 -14.68 20 -14 20 C-14 19.34 -14 18.68 -14 18 C-13.01 17.505 -13.01 17.505 -12 17 C-11.67 16.01 -11.34 15.02 -11 14 C-10.34 14 -9.68 14 -9 14 C-9 13.01 -9 12.02 -9 11 C-8.34 11 -7.68 11 -7 11 C-7 10.34 -7 9.68 -7 9 C-6.34 9 -5.68 9 -5 9 C-4.690625 8.21625 -4.38125 7.4325 -4.0625 6.625 C-3 4 -3 4 -2 2 C-1.34 2 -0.68 2 0 2 C0 1.34 0 0.68 0 0 Z " fill="#000000" transform="translate(482,365)"/>
<path d="M0 0 C0.69802734 0.00386719 1.39605469 0.00773437 2.11523438 0.01171875 C2.80939453 0.00785156 3.50355469 0.00398438 4.21875 0 C9.42445449 0.01007881 9.42445449 0.01007881 11.67773438 1.13671875 C15.46073881 1.36991765 19.23756446 1.53162636 23.02539062 1.65429688 C23.81558594 1.68845703 24.60578125 1.72261719 25.41992188 1.7578125 C26.14034668 1.78286865 26.86077148 1.8079248 27.60302734 1.83374023 C29.95781623 2.17762033 31.58220258 3.03641713 33.67773438 4.13671875 C36.49270179 4.58947153 36.49270179 4.58947153 39.42773438 4.76171875 C40.41257812 4.83648438 41.39742188 4.91125 42.41210938 4.98828125 C43.15976562 5.03726562 43.90742188 5.08625 44.67773438 5.13671875 C44.67773438 5.79671875 44.67773438 6.45671875 44.67773438 7.13671875 C47.31773437 7.13671875 49.95773437 7.13671875 52.67773438 7.13671875 C52.67773438 7.79671875 52.67773438 8.45671875 52.67773438 9.13671875 C53.66773438 9.07484375 54.65773438 9.01296875 55.67773438 8.94921875 C60.14661649 8.9218023 63.59078046 10.41589605 67.67773438 12.13671875 C67.67773438 12.79671875 67.67773438 13.45671875 67.67773438 14.13671875 C70.31773437 14.13671875 72.95773437 14.13671875 75.67773438 14.13671875 C75.67773438 14.79671875 75.67773438 15.45671875 75.67773438 16.13671875 C77.32773437 16.13671875 78.97773438 16.13671875 80.67773438 16.13671875 C80.67773438 16.79671875 80.67773438 17.45671875 80.67773438 18.13671875 C81.99773437 18.13671875 83.31773437 18.13671875 84.67773438 18.13671875 C84.67773438 18.79671875 84.67773438 19.45671875 84.67773438 20.13671875 C85.37898438 20.26046875 86.08023438 20.38421875 86.80273438 20.51171875 C89.85429825 21.1751022 92.73114375 22.1088383 95.67773438 23.13671875 C95.67773438 23.79671875 95.67773438 24.45671875 95.67773438 25.13671875 C97.32773437 25.13671875 98.97773438 25.13671875 100.67773438 25.13671875 C100.67773438 25.79671875 100.67773438 26.45671875 100.67773438 27.13671875 C101.56460938 27.40484375 102.45148438 27.67296875 103.36523438 27.94921875 C106.46870098 29.06178225 108.98884123 30.23867653 111.67773438 32.13671875 C111.67773438 32.79671875 111.67773438 33.45671875 111.67773438 34.13671875 C112.66773438 34.13671875 113.65773438 34.13671875 114.67773438 34.13671875 C114.67773438 34.79671875 114.67773438 35.45671875 114.67773438 36.13671875 C115.99773437 36.13671875 117.31773437 36.13671875 118.67773438 36.13671875 C118.67773438 36.79671875 118.67773438 37.45671875 118.67773438 38.13671875 C119.27585937 38.26046875 119.87398438 38.38421875 120.49023438 38.51171875 C122.67773438 39.13671875 122.67773438 39.13671875 125.67773438 41.13671875 C125.67773438 41.79671875 125.67773438 42.45671875 125.67773438 43.13671875 C126.33773437 43.13671875 126.99773437 43.13671875 127.67773438 43.13671875 C127.67773438 43.79671875 127.67773438 44.45671875 127.67773438 45.13671875 C128.33773437 45.13671875 128.99773437 45.13671875 129.67773438 45.13671875 C129.67773438 45.79671875 129.67773438 46.45671875 129.67773438 47.13671875 C130.27585937 47.26046875 130.87398437 47.38421875 131.49023438 47.51171875 C133.67773438 48.13671875 133.67773438 48.13671875 136.67773438 50.13671875 C136.67773438 50.79671875 136.67773438 51.45671875 136.67773438 52.13671875 C137.33773437 52.13671875 137.99773437 52.13671875 138.67773438 52.13671875 C138.67773438 52.79671875 138.67773438 53.45671875 138.67773438 54.13671875 C139.66773438 54.13671875 140.65773438 54.13671875 141.67773438 54.13671875 C141.67773438 54.79671875 141.67773438 55.45671875 141.67773438 56.13671875 C142.33773437 56.13671875 142.99773437 56.13671875 143.67773438 56.13671875 C143.67773438 56.79671875 143.67773438 57.45671875 143.67773438 58.13671875 C144.33773437 58.13671875 144.99773437 58.13671875 145.67773438 58.13671875 C145.67773438 58.79671875 145.67773438 59.45671875 145.67773438 60.13671875 C146.31710937 60.40484375 146.95648438 60.67296875 147.61523438 60.94921875 C149.67773438 62.13671875 149.67773438 62.13671875 150.67773438 65.13671875 C151.33773437 65.13671875 151.99773437 65.13671875 152.67773438 65.13671875 C152.67773438 65.79671875 152.67773438 66.45671875 152.67773438 67.13671875 C153.33773437 67.13671875 153.99773437 67.13671875 154.67773438 67.13671875 C154.67773438 67.79671875 154.67773438 68.45671875 154.67773438 69.13671875 C155.31710937 69.40484375 155.95648438 69.67296875 156.61523438 69.94921875 C158.67773438 71.13671875 158.67773438 71.13671875 159.67773438 74.13671875 C160.33773437 74.13671875 160.99773437 74.13671875 161.67773438 74.13671875 C161.67773438 74.79671875 161.67773438 75.45671875 161.67773438 76.13671875 C162.33773437 76.13671875 162.99773437 76.13671875 163.67773438 76.13671875 C163.67773438 77.12671875 163.67773438 78.11671875 163.67773438 79.13671875 C164.33773437 79.13671875 164.99773437 79.13671875 165.67773438 79.13671875 C165.67773438 79.79671875 165.67773438 80.45671875 165.67773438 81.13671875 C166.33773437 81.13671875 166.99773437 81.13671875 167.67773438 81.13671875 C167.67773438 82.45671875 167.67773438 83.77671875 167.67773438 85.13671875 C168.66773438 85.46671875 169.65773438 85.79671875 170.67773438 86.13671875 C170.67773438 86.79671875 170.67773438 87.45671875 170.67773438 88.13671875 C171.33773437 88.13671875 171.99773437 88.13671875 172.67773438 88.13671875 C172.67773438 88.79671875 172.67773438 89.45671875 172.67773438 90.13671875 C173.33773437 90.13671875 173.99773437 90.13671875 174.67773438 90.13671875 C174.67773438 91.45671875 174.67773438 92.77671875 174.67773438 94.13671875 C175.33773437 94.13671875 175.99773437 94.13671875 176.67773438 94.13671875 C176.67773438 97.10671875 176.67773438 100.07671875 176.67773438 103.13671875 C175.35773438 103.13671875 174.03773438 103.13671875 172.67773438 103.13671875 C172.67773438 102.47671875 172.67773438 101.81671875 172.67773438 101.13671875 C172.01773438 101.13671875 171.35773438 101.13671875 170.67773438 101.13671875 C168.38124788 98.57525305 167.67773438 97.65704303 167.67773438 94.13671875 C167.01773438 94.13671875 166.35773438 94.13671875 165.67773438 94.13671875 C165.67773438 93.47671875 165.67773438 92.81671875 165.67773438 92.13671875 C165.01773438 92.13671875 164.35773438 92.13671875 163.67773438 92.13671875 C163.67773438 91.14671875 163.67773438 90.15671875 163.67773438 89.13671875 C163.01773438 89.13671875 162.35773438 89.13671875 161.67773438 89.13671875 C161.67773438 87.81671875 161.67773438 86.49671875 161.67773438 85.13671875 C160.68773437 85.13671875 159.69773437 85.13671875 158.67773438 85.13671875 C158.67773438 84.47671875 158.67773438 83.81671875 158.67773438 83.13671875 C158.01773438 83.13671875 157.35773438 83.13671875 156.67773438 83.13671875 C156.01773438 81.48671875 155.35773438 79.83671875 154.67773438 78.13671875 C154.01773438 78.13671875 153.35773438 78.13671875 152.67773438 78.13671875 C152.67773438 77.47671875 152.67773438 76.81671875 152.67773438 76.13671875 C152.01773438 76.13671875 151.35773438 76.13671875 150.67773438 76.13671875 C150.67773438 75.47671875 150.67773438 74.81671875 150.67773438 74.13671875 C150.03835938 73.86859375 149.39898437 73.60046875 148.74023438 73.32421875 C146.67773438 72.13671875 146.67773438 72.13671875 145.67773438 69.13671875 C145.01773438 69.13671875 144.35773438 69.13671875 143.67773438 69.13671875 C143.67773438 68.47671875 143.67773438 67.81671875 143.67773438 67.13671875 C143.01773438 67.13671875 142.35773438 67.13671875 141.67773438 67.13671875 C141.67773438 66.47671875 141.67773438 65.81671875 141.67773438 65.13671875 C141.07960938 64.86859375 140.48148438 64.60046875 139.86523438 64.32421875 C137.67925584 63.13754469 136.26440844 62.04072762 134.67773438 60.13671875 C134.67773438 59.47671875 134.67773438 58.81671875 134.67773438 58.13671875 C131.70773437 57.14671875 131.70773437 57.14671875 128.67773438 56.13671875 C128.67773438 55.47671875 128.67773438 54.81671875 128.67773438 54.13671875 C127.68773437 54.13671875 126.69773437 54.13671875 125.67773438 54.13671875 C125.67773438 53.47671875 125.67773438 52.81671875 125.67773438 52.13671875 C125.01773438 52.13671875 124.35773438 52.13671875 123.67773438 52.13671875 C122.05273438 50.76171875 122.05273438 50.76171875 120.67773438 49.13671875 C120.67773438 48.47671875 120.67773438 47.81671875 120.67773438 47.13671875 C120.05898438 46.99234375 119.44023437 46.84796875 118.80273438 46.69921875 C116.67773438 46.13671875 116.67773438 46.13671875 114.67773438 45.13671875 C114.67773438 44.47671875 114.67773438 43.81671875 114.67773438 43.13671875 C113.35773438 43.13671875 112.03773438 43.13671875 110.67773438 43.13671875 C110.67773438 42.47671875 110.67773438 41.81671875 110.67773438 41.13671875 C109.89398438 40.82734375 109.11023438 40.51796875 108.30273438 40.19921875 C105.67773438 39.13671875 105.67773438 39.13671875 103.67773438 38.13671875 C103.67773438 37.47671875 103.67773438 36.81671875 103.67773438 36.13671875 C102.89398438 35.99234375 102.11023438 35.84796875 101.30273438 35.69921875 C98.67773438 35.13671875 98.67773438 35.13671875 96.67773438 34.13671875 C96.67773438 33.47671875 96.67773438 32.81671875 96.67773438 32.13671875 C95.79085937 32.01296875 94.90398437 31.88921875 93.99023438 31.76171875 C90.97385935 31.19259139 88.47447383 30.37057439 85.67773438 29.13671875 C85.67773438 28.47671875 85.67773438 27.81671875 85.67773438 27.13671875 C84.02773438 27.13671875 82.37773437 27.13671875 80.67773438 27.13671875 C80.67773438 26.47671875 80.67773438 25.81671875 80.67773438 25.13671875 C79.35773438 25.13671875 78.03773438 25.13671875 76.67773438 25.13671875 C76.67773438 24.47671875 76.67773438 23.81671875 76.67773438 23.13671875 C75.97648437 23.01296875 75.27523437 22.88921875 74.55273438 22.76171875 C71.5011705 22.0983353 68.624325 21.1645992 65.67773438 20.13671875 C65.67773438 19.47671875 65.67773438 18.81671875 65.67773438 18.13671875 C63.36773437 18.13671875 61.05773437 18.13671875 58.67773438 18.13671875 C58.67773438 17.47671875 58.67773438 16.81671875 58.67773438 16.13671875 C56.69773437 16.13671875 54.71773438 16.13671875 52.67773438 16.13671875 C52.67773438 15.47671875 52.67773438 14.81671875 52.67773438 14.13671875 C51.89527344 14.14832031 51.1128125 14.15992188 50.30664062 14.171875 C49.29472656 14.18089844 48.2828125 14.18992187 47.24023438 14.19921875 C46.23089844 14.21082031 45.2215625 14.22242188 44.18164062 14.234375 C41.67773438 14.13671875 41.67773438 14.13671875 40.67773438 13.13671875 C38.49753958 12.74005648 36.30808808 12.39356638 34.11523438 12.07421875 C32.31892578 11.80931641 32.31892578 11.80931641 30.48632812 11.5390625 C29.55949219 11.40628906 28.63265625 11.27351563 27.67773438 11.13671875 C27.67773438 10.47671875 27.67773438 9.81671875 27.67773438 9.13671875 C20.41773438 9.13671875 13.15773438 9.13671875 5.67773438 9.13671875 C5.67773438 8.47671875 5.67773438 7.81671875 5.67773438 7.13671875 C1.71773438 7.13671875 -2.24226563 7.13671875 -6.32226562 7.13671875 C-6.32226562 0.01226434 -6.32226562 0.01226434 0 0 Z " fill="#000000" transform="translate(309.322265625,26.86328125)"/>
<path d="M0 0 C1.27875 0.00257813 2.5575 0.00515625 3.875 0.0078125 C5.15375 0.00523437 6.4325 0.00265625 7.75 0 C10.875 0.1328125 10.875 0.1328125 11.875 1.1328125 C11.96992722 3.47535032 12.00059791 5.78827354 11.98852539 8.13110352 C11.98867142 8.86276733 11.98881744 9.59443115 11.9889679 10.3482666 C11.98826867 12.77778034 11.98047585 15.20721833 11.97265625 17.63671875 C11.9707921 19.31680764 11.96936819 20.99689707 11.96836853 22.67698669 C11.96454307 27.10754893 11.95471256 31.5380786 11.94366455 35.96862793 C11.93345103 40.48624226 11.92887104 45.00386184 11.92382812 49.52148438 C11.91309031 58.39194143 11.89601356 67.26237426 11.875 76.1328125 C9.14422124 77.49820188 6.91939633 77.26513076 3.875 77.2578125 C2.26625 77.26167969 2.26625 77.26167969 0.625 77.265625 C-2.125 77.1328125 -2.125 77.1328125 -4.125 76.1328125 C-4.14812446 66.37130262 -4.16591561 56.6097992 -4.17681217 46.84826756 C-4.18204078 42.31607156 -4.18913801 37.78389423 -4.20043945 33.25170898 C-4.21126914 28.8815842 -4.21727701 24.51147742 -4.21987724 20.14134026 C-4.22173135 18.47030287 -4.22535168 16.79926653 -4.23073006 15.12823677 C-4.23794159 12.79583699 -4.2389909 10.46351257 -4.23852539 8.13110352 C-4.24212067 7.4333934 -4.24571594 6.73568329 -4.24942017 6.01683044 C-4.23673336 0.18006117 -4.23673336 0.18006117 0 0 Z " fill="#000000" transform="translate(358.125,160.8671875)"/>
<path d="M0 0 C2.00720923 0.28674418 4.0085944 0.61866701 6 1 C6 1.66 6 2.32 6 3 C7.98 3 9.96 3 12 3 C12.33 4.98 12.66 6.96 13 9 C12.01 9.33 11.02 9.66 10 10 C10 10.66 10 11.32 10 12 C9.34 12 8.68 12 8 12 C8 13.32 8 14.64 8 16 C8.66 16 9.32 16 10 16 C10 16.66 10 17.32 10 18 C10.99 18 11.98 18 13 18 C13 17.34 13 16.68 13 16 C13.66 16 14.32 16 15 16 C15 13.03 15 10.06 15 7 C20.06899479 6.62909794 23.55355521 7.52025194 28 10 C29.4375 12.6875 29.4375 12.6875 30 15 C28.02 15.66 26.04 16.32 24 17 C24.0825 17.680625 24.165 18.36125 24.25 19.0625 C24 22 24 22 22.0625 25.0625 C19.0044357 29.92514641 19.18381656 35.40278567 19 41 C17.02 41 15.04 41 13 41 C13 40.34 13 39.68 13 39 C12.2575 39.061875 11.515 39.12375 10.75 39.1875 C7.52480092 38.96760006 6.30276574 38.21747812 4 36 C4 35.34 4 34.68 4 34 C1.36 34 -1.28 34 -4 34 C-4 33.67 -4 33.34 -4 33 C-5.65 32.67 -7.3 32.34 -9 32 C-9 31.34 -9 30.68 -9 30 C-9.99 29.67 -10.98 29.34 -12 29 C-12 27.68 -12 26.36 -12 25 C-10.68 25 -9.36 25 -8 25 C-7.87625 24.443125 -7.7525 23.88625 -7.625 23.3125 C-6.94023145 20.77885636 -6.00866237 18.42078968 -5 16 C-4.34 16 -3.68 16 -3 16 C-3 14.02 -3 12.04 -3 10 C-2.34 10 -1.68 10 -1 10 C-1.01160156 9.36191406 -1.02320313 8.72382813 -1.03515625 8.06640625 C-1.04417969 7.24011719 -1.05320313 6.41382813 -1.0625 5.5625 C-1.07410156 4.73878906 -1.08570313 3.91507812 -1.09765625 3.06640625 C-1 1 -1 1 0 0 Z M4 23 C3.31506627 25.85778033 3.31506627 25.85778033 3 29 C3.99 30.485 3.99 30.485 5 32 C5.99 31.34 6.98 30.68 8 30 C8 29.01 8 28.02 8 27 C8.66 27 9.32 27 10 27 C10 26.34 10 25.68 10 25 C8.68 25 7.36 25 6 25 C6 24.34 6 23.68 6 23 C5.34 23 4.68 23 4 23 Z " fill="#000000" transform="translate(210,429)"/>
<path d="M0 0 C2.97 0.495 2.97 0.495 6 1 C6.33 2.32 6.66 3.64 7 5 C9.64 5 12.28 5 15 5 C15 5.66 15 6.32 15 7 C15.9075 7 16.815 7 17.75 7 C20.16666667 7 22.58333333 7 25 7 C25.886875 6.979375 26.77375 6.95875 27.6875 6.9375 C30 7 30 7 31 8 C31.61257395 12.90059159 29.90999633 17.54042141 28 22 C27.34 22.66 26.68 23.32 26 24 C25.83312552 26.58354218 25.83312552 26.58354218 26 29 C25.34 29 24.68 29 24 29 C24 31.31 24 33.62 24 36 C23.34 36 22.68 36 22 36 C22 36.99 22 37.98 22 39 C20.35 38.67 18.7 38.34 17 38 C17 36.68 17 35.36 17 34 C14.36 34 11.72 34 9 34 C9 33.34 9 32.68 9 32 C6.69 32 4.38 32 2 32 C2 31.34 2 30.68 2 30 C0.35 30 -1.3 30 -3 30 C-3 30.66 -3 31.32 -3 32 C-4.65 31.67 -6.3 31.34 -8 31 C-7.67 27.7 -7.34 24.4 -7 21 C-6.34 21 -5.68 21 -5 21 C-5 19.35 -5 17.7 -5 16 C-4.34 15.67 -3.68 15.34 -3 15 C-3.03480469 14.41992188 -3.06960937 13.83984375 -3.10546875 13.2421875 C-3.28744524 7.990866 -2.83377711 4.60488781 0 0 Z M1 14 C-0.33304698 16.89186786 -0.33304698 16.89186786 0.9375 19.1875 C1.288125 19.785625 1.63875 20.38375 2 21 C3.32 21 4.64 21 6 21 C6 20.34 6 19.68 6 19 C6.66 19 7.32 19 8 19 C7.67 17.35 7.34 15.7 7 14 C5.02 14 3.04 14 1 14 Z M15 18 C15 18.99 15 19.98 15 21 C14.34 21 13.68 21 13 21 C13 21.66 13 22.32 13 23 C14.32 23 15.64 23 17 23 C17 23.66 17 24.32 17 25 C17.99 25 18.98 25 20 25 C20 24.34 20 23.68 20 23 C20.66 23 21.32 23 22 23 C22 21.68 22 20.36 22 19 C19.69 18.67 17.38 18.34 15 18 Z " fill="#000000" transform="translate(80,163)"/>
<path d="M0 0 C1.99954746 -0.04254356 4.00041636 -0.04080783 6 0 C7 1 7 1 7.09765625 3.28515625 C7.08605469 4.20167969 7.07445312 5.11820313 7.0625 6.0625 C7.05347656 6.98160156 7.04445312 7.90070312 7.03515625 8.84765625 C7.02355469 9.55792969 7.01195312 10.26820312 7 11 C7.66 11 8.32 11 9 11 C9 11.99 9 12.98 9 14 C9.66 14 10.32 14 11 14 C13.04169485 16.90548882 14 18.40142046 14 22 C14.66 22 15.32 22 16 22 C16 22.99 16 23.98 16 25 C16.66 25 17.32 25 18 25 C18 26.32 18 27.64 18 29 C17.34 29 16.68 29 16 29 C16 29.66 16 30.32 16 31 C13.36 31 10.72 31 8 31 C8 30.34 8 29.68 8 29 C6.35 29 4.7 29 3 29 C3 28.34 3 27.68 3 27 C2.21625 26.855625 1.4325 26.71125 0.625 26.5625 C-2 26 -2 26 -4 25 C-4 26.32 -4 27.64 -4 29 C-3.34 29 -2.68 29 -2 29 C-2 29.66 -2 30.32 -2 31 C-1.21625 31.0825 -0.4325 31.165 0.375 31.25 C3 32 3 32 4.375 33.9375 C5 36 5 36 4 38 C2.68 38 1.36 38 0 38 C0 38.66 0 39.32 0 40 C-3.22213757 42.14809171 -4.27775401 42.29386153 -8 42 C-9 41 -9 41 -9.09765625 39.15234375 C-9.04882812 36.07617188 -9.04882812 36.07617188 -9 33 C-9.66 33 -10.32 33 -11 33 C-11 31.68 -11 30.36 -11 29 C-11.66 29 -12.32 29 -13 29 C-17 22.25 -17 22.25 -17 20 C-18.65 20 -20.3 20 -22 20 C-22 18.02 -22 16.04 -22 14 C-20.68 13.67 -19.36 13.34 -18 13 C-18 12.34 -18 11.68 -18 11 C-16.68 11 -15.36 11 -14 11 C-14 10.34 -14 9.68 -14 9 C-13.34 9 -12.68 9 -12 9 C-12 9.66 -12 10.32 -12 11 C-10.35 11 -8.7 11 -7 11 C-7 11.66 -7 12.32 -7 13 C-4.69 13.33 -2.38 13.66 0 14 C0 13.01 0 12.02 0 11 C-2.97 10.505 -2.97 10.505 -6 10 C-6.75 8.25 -6.75 8.25 -7 6 C-5.25 3.75 -5.25 3.75 -3 2 C-2.01 2 -1.02 2 0 2 C0 1.34 0 0.68 0 0 Z " fill="#000000" transform="translate(191,34)"/>
<path d="M0 0 C0.66 0.33 1.32 0.66 2 1 C2 1.66 2 2.32 2 3 C2.66 3 3.32 3 4 3 C4 3.66 4 4.32 4 5 C4.66 5 5.32 5 6 5 C6 5.99 6 6.98 6 8 C6.66 8 7.32 8 8 8 C11 14.5 11 14.5 11 19 C11.66 19 12.32 19 13 19 C12.8125 20.875 12.8125 20.875 12 23 C9.4375 24.25 9.4375 24.25 7 25 C7 24.34 7 23.68 7 23 C5.35 23 3.7 23 2 23 C2 23.66 2 24.32 2 25 C0.35 25 -1.3 25 -3 25 C-3 25.66 -3 26.32 -3 27 C-8.625 30 -8.625 30 -12 30 C-12 31.32 -12 32.64 -12 34 C-13.98 34 -15.96 34 -18 34 C-18.33 32.35 -18.66 30.7 -19 29 C-19.66 29 -20.32 29 -21 29 C-21 27.35 -21 25.7 -21 24 C-21.66 24 -22.32 24 -23 24 C-23.22786458 22.01432292 -23.45572917 20.02864583 -23.68359375 18.04296875 C-23.97170735 15.80603607 -23.97170735 15.80603607 -25 13 C-24.34 13 -23.68 13 -23 13 C-23 11.68 -23 10.36 -23 9 C-22.34 9 -21.68 9 -21 9 C-21 8.34 -21 7.68 -21 7 C-18.03 7 -15.06 7 -12 7 C-12 5.68 -12 4.36 -12 3 C-8.16435803 -0.25448409 -4.90064917 -0.36986031 0 0 Z M-3 10 C-3 10.66 -3 11.32 -3 12 C-3.66 12 -4.32 12 -5 12 C-4.67 12.99 -4.34 13.98 -4 15 C-2.35 14.67 -0.7 14.34 1 14 C0.34 12.68 -0.32 11.36 -1 10 C-1.66 10 -2.32 10 -3 10 Z M-14 16 C-14 16.66 -14 17.32 -14 18 C-14.66 18 -15.32 18 -16 18 C-15.67 18.99 -15.34 19.98 -15 21 C-13.45833358 19.62514468 -13.45833358 19.62514468 -12 18 C-12 17.34 -12 16.68 -12 16 C-12.66 16 -13.32 16 -14 16 Z " fill="#000000" transform="translate(107,315)"/>
<path d="M0 0 C3.3 0 6.6 0 10 0 C10 0.66 10 1.32 10 2 C10.7425 2.0825 11.485 2.165 12.25 2.25 C15.54302595 3.14809799 16.85976788 4.38416074 19 7 C19 7.66 19 8.32 19 9 C19.66 9 20.32 9 21 9 C21 13.29 21 17.58 21 22 C20.34 22 19.68 22 19 22 C19 23.32 19 24.64 19 26 C18.34 26 17.68 26 17 26 C17 26.99 17 27.98 17 29 C16.01 29 15.02 29 14 29 C14 29.66 14 30.32 14 31 C10.25396373 34.14183687 6.92458973 34.44609969 2.2265625 34.3046875 C-0.9125612 33.8751232 -3.32310247 32.64732156 -6 31 C-6 30.34 -6 29.68 -6 29 C-6.66 29 -7.32 29 -8 29 C-8 28.34 -8 27.68 -8 27 C-8.66 27 -9.32 27 -10 27 C-11.42258812 23.17679443 -12.24042276 20.08718695 -12 16 C-11.34 16 -10.68 16 -10 16 C-10 13.69 -10 11.38 -10 9 C-9.34 9 -8.68 9 -8 9 C-7.731875 8.401875 -7.46375 7.80375 -7.1875 7.1875 C-5.99012525 4.98180967 -4.95521016 3.56416813 -3 2 C-2.01 2 -1.02 2 0 2 C0 1.34 0 0.68 0 0 Z M5 9 C5 9.66 5 10.32 5 11 C4.34 11 3.68 11 3 11 C3 11.66 3 12.32 3 13 C2.34 13 1.68 13 1 13 C1 14.32 1 15.64 1 17 C0.34 17 -0.32 17 -1 17 C-1 19.64 -1 22.28 -1 25 C1.98355176 25.24862931 3.64865849 25.18991433 6.3125 23.75 C8.46275705 21.92528402 8.46275705 21.92528402 8 18 C8.66 18 9.32 18 10 18 C10 16.68 10 15.36 10 14 C10.66 14 11.32 14 12 14 C12 13.01 12 12.02 12 11 C11.34 11 10.68 11 10 11 C10 10.34 10 9.68 10 9 C8.35 9 6.7 9 5 9 Z " fill="#000000" transform="translate(179,414)"/>
<path d="M0 0 C4.29 0 8.58 0 13 0 C13 0.66 13 1.32 13 2 C13.78375 2.0825 14.5675 2.165 15.375 2.25 C18 3 18 3 19.3125 5.0625 C19.6528125 6.0215625 19.6528125 6.0215625 20 7 C20.66 7 21.32 7 22 7 C22 12.61 22 18.22 22 24 C21.34 24 20.68 24 20 24 C19.773125 24.639375 19.54625 25.27875 19.3125 25.9375 C18 28 18 28 15.375 28.75 C14.199375 28.87375 14.199375 28.87375 13 29 C13 29.66 13 30.32 13 31 C10.60347472 31.08139142 8.20974564 31.14067009 5.8125 31.1875 C5.13896484 31.21263672 4.46542969 31.23777344 3.77148438 31.26367188 C-0.65806882 31.3284946 -3.55627255 30.8686584 -7 28 C-7 27.01 -7 26.02 -7 25 C-7.66 25 -8.32 25 -9 25 C-10.45184478 20.46298506 -11.23509196 16.81938524 -11 12 C-10.34 12 -9.68 12 -9 12 C-9 10.35 -9 8.7 -9 7 C-8.34 7 -7.68 7 -7 7 C-6.773125 6.38125 -6.54625 5.7625 -6.3125 5.125 C-4.62070165 2.38589791 -3.00755839 1.94975528 0 1 C0 0.67 0 0.34 0 0 Z M4 11 C4 11.66 4 12.32 4 13 C3.195625 13.144375 2.39125 13.28875 1.5625 13.4375 C-0.92103706 13.74135249 -0.92103706 13.74135249 -2 15 C-2 16.65 -2 18.3 -2 20 C2.29 20 6.58 20 11 20 C11 19.34 11 18.68 11 18 C12.32 17.34 13.64 16.68 15 16 C15 14.35 15 12.7 15 11 C11.37 11 7.74 11 4 11 Z " fill="#000000" transform="translate(82,280)"/>
<path d="M0 0 C2.58396679 -0.08112454 5.16537568 -0.14054748 7.75 -0.1875 C8.47960937 -0.21263672 9.20921875 -0.23777344 9.9609375 -0.26367188 C13.2676931 -0.308764 15.58932057 -0.22638385 18.515625 1.38671875 C20 3 20 3 20 5 C20.66 5 21.32 5 22 5 C24.8568312 9.76138533 25.84180048 13.56067385 25 19 C23.5 22.5 23.5 22.5 22 25 C21.34 25 20.68 25 20 25 C20 25.66 20 26.32 20 27 C19.34 27 18.68 27 18 27 C18 27.66 18 28.32 18 29 C16.35 29 14.7 29 13 29 C13 29.66 13 30.32 13 31 C9.04 31 5.08 31 1 31 C1 30.34 1 29.68 1 29 C0.236875 29.0825 -0.52625 29.165 -1.3125 29.25 C-4 29 -4 29 -5.8125 27.1875 C-7 25 -7 25 -7 22 C-7.66 22 -8.32 22 -9 22 C-9 17.71 -9 13.42 -9 9 C-8.34 9 -7.68 9 -7 9 C-6.67 7.35 -6.34 5.7 -6 4 C-5.34 4 -4.68 4 -4 4 C-4 3.34 -4 2.68 -4 2 C-2.68 2 -1.36 2 0 2 C0 1.34 0 0.68 0 0 Z M2 11 C2 11.66 2 12.32 2 13 C0.68 13 -0.64 13 -2 13 C-2 14.65 -2 16.3 -2 18 C-1.34 18 -0.68 18 0 18 C0 18.66 0 19.32 0 20 C3.96 20 7.92 20 12 20 C12 19.34 12 18.68 12 18 C13.32 18 14.64 18 16 18 C16 17.34 16 16.68 16 16 C16.66 16 17.32 16 18 16 C18 15.01 18 14.02 18 13 C17.34 13 16.68 13 16 13 C16 12.34 16 11.68 16 11 C11.38 11 6.76 11 2 11 Z " fill="#000000" transform="translate(75,242)"/>
<path d="M0 0 C2.74469461 3.29363353 3.36303085 5.76464012 3 10 C3.66 10.33 4.32 10.66 5 11 C5 11.66 5 12.32 5 13 C5.66 13 6.32 13 7 13 C7 13.66 7 14.32 7 15 C8.98 15 10.96 15 13 15 C13.495 16.485 13.495 16.485 14 18 C14.66 18 15.32 18 16 18 C16 19.98 16 21.96 16 24 C15.34 24 14.68 24 14 24 C14 24.66 14 25.32 14 26 C12.625 27.625 12.625 27.625 11 29 C10.34 29 9.68 29 9 29 C9 29.66 9 30.32 9 31 C8.34 31 7.68 31 7 31 C7 31.66 7 32.32 7 33 C5.35 33.66 3.7 34.32 2 35 C2 35.66 2 36.32 2 37 C-1.75 38.125 -1.75 38.125 -4 37 C-4.74118205 34.68925595 -5.40206327 32.35188447 -6 30 C-6.20625 29.195625 -6.4125 28.39125 -6.625 27.5625 C-6.74875 27.046875 -6.8725 26.53125 -7 26 C-7.66 26 -8.32 26 -9 26 C-9 25.34 -9 24.68 -9 24 C-9.66 24 -10.32 24 -11 24 C-11 23.34 -11 22.68 -11 22 C-11.66 22 -12.32 22 -13 22 C-13.598125 21.38125 -14.19625 20.7625 -14.8125 20.125 C-17.12505706 17.878516 -18.97199019 17.0093366 -22 16 C-21.6875 14.0625 -21.6875 14.0625 -21 12 C-20.01 11.67 -19.02 11.34 -18 11 C-17.67 10.01 -17.34 9.02 -17 8 C-16.34 8 -15.68 8 -15 8 C-15 7.34 -15 6.68 -15 6 C-14.34 6 -13.68 6 -13 6 C-13 5.34 -13 4.68 -13 4 C-12.34 4 -11.68 4 -11 4 C-11 3.34 -11 2.68 -11 2 C-10.01 2 -9.02 2 -8 2 C-8 1.34 -8 0.68 -8 0 C-5.00422405 -1.49788797 -3.16806651 -0.90516186 0 0 Z M-7 9 C-6.67 10.32 -6.34 11.64 -6 13 C-5.34 13 -4.68 13 -4 13 C-4 11.68 -4 10.36 -4 9 C-4.99 9 -5.98 9 -7 9 Z M6 19 C4.68 19.33 3.36 19.66 2 20 C2.66 21.32 3.32 22.64 4 24 C4.33 23.34 4.66 22.68 5 22 C5.66 22 6.32 22 7 22 C6.67 21.01 6.34 20.02 6 19 Z " fill="#000000" transform="translate(162,59)"/>
<path d="M0 0 C4.95 0 9.9 0 15 0 C15 0.66 15 1.32 15 2 C15.99 2 16.98 2 18 2 C18 2.66 18 3.32 18 4 C18.66 4 19.32 4 20 4 C20 4.99 20 5.98 20 7 C20.66 7 21.32 7 22 7 C23.5638537 11.8870428 23.5638537 17.1129572 22 22 C21.34 22 20.68 22 20 22 C20 23.32 20 24.64 20 26 C17.49515403 28.41847197 16.53986194 29 13 29 C13 29.66 13 30.32 13 31 C8.05 31 3.1 31 -2 31 C-2 30.34 -2 29.68 -2 29 C-2.639375 28.731875 -3.27875 28.46375 -3.9375 28.1875 C-6 27 -6 27 -7 24 C-7.66 24 -8.32 24 -9 24 C-9 18.72 -9 13.44 -9 8 C-8.34 8 -7.68 8 -7 8 C-7 7.01 -7 6.02 -7 5 C-5.75 3.3125 -5.75 3.3125 -4 2 C-2.68 2 -1.36 2 0 2 C0 1.34 0 0.68 0 0 Z M7 9 C7 9.66 7 10.32 7 11 C6.01 11 5.02 11 4 11 C4 11.66 4 12.32 4 13 C3.34 13 2.68 13 2 13 C2 13.66 2 14.32 2 15 C1.34 15 0.68 15 0 15 C-0.66 16.65 -1.32 18.3 -2 20 C-1.34 20 -0.68 20 0 20 C0 20.66 0 21.32 0 22 C1.98 22 3.96 22 6 22 C6 21.34 6 20.68 6 20 C6.99 20 7.98 20 9 20 C9 19.34 9 18.68 9 18 C9.66 18 10.32 18 11 18 C11 17.34 11 16.68 11 16 C11.66 16 12.32 16 13 16 C13.66 14.35 14.32 12.7 15 11 C13.10244856 8.65026182 13.10244856 8.65026182 9.875 8.875 C8.451875 8.936875 8.451875 8.936875 7 9 Z " fill="#000000" transform="translate(122,365)"/>
<path d="M0 0 C3.05159307 -0.26156512 4.94481501 -0.022074 7.8125 1.125 C10 3 10 3 10.3125 6.1875 C10.209375 7.115625 10.10625 8.04375 10 9 C12.475 9.495 12.475 9.495 15 10 C15 10.66 15 11.32 15 12 C15.66 12 16.32 12 17 12 C17 11.34 17 10.68 17 10 C25.12622089 10.78136739 25.12622089 10.78136739 28 14 C28.52851451 16.94458082 28.4176972 18.37345421 26.75 20.875 C26.1725 21.57625 25.595 22.2775 25 23 C23.60894493 25.30346753 22.31097569 27.64928498 21 30 C20.34 30 19.68 30 19 30 C19 31.32 19 32.64 19 34 C18.34 34 17.68 34 17 34 C17 34.66 17 35.32 17 36 C15.35 36 13.7 36 12 36 C11.896875 35.21625 11.79375 34.4325 11.6875 33.625 C11.22404978 30.66954819 11.22404978 30.66954819 8 29 C8 28.34 8 27.68 8 27 C6.68 27 5.36 27 4 27 C4 26.34 4 25.68 4 25 C2.68 25 1.36 25 0 25 C0 24.34 0 23.68 0 23 C-0.99 23 -1.98 23 -3 23 C-3 22.34 -3 21.68 -3 21 C-3.99 21 -4.98 21 -6 21 C-6 21.66 -6 22.32 -6 23 C-7.32 22.67 -8.64 22.34 -10 22 C-10.59551568 16.28304945 -9.40162446 13.30016401 -6.2890625 8.50390625 C-5.86367187 8.00761719 -5.43828125 7.51132813 -5 7 C-4.34 7 -3.68 7 -3 7 C-3 5.68 -3 4.36 -3 3 C-2.34 3 -1.68 3 -1 3 C-0.67 2.01 -0.34 1.02 0 0 Z M4 9 C3.01 10.485 3.01 10.485 2 12 C2.33 12.66 2.66 13.32 3 14 C3.99 14 4.98 14 6 14 C6 12.35 6 10.7 6 9 C5.34 9 4.68 9 4 9 Z M16 16 C16 16.66 16 17.32 16 18 C15.01 18.33 14.02 18.66 13 19 C14.98 19.99 14.98 19.99 17 21 C17 20.34 17 19.68 17 19 C17.66 18.67 18.32 18.34 19 18 C18.01 17.34 17.02 16.68 16 16 Z " fill="#000000" transform="translate(105,114)"/>
<path d="M0 0 C3.63 0 7.26 0 11 0 C11 0.66 11 1.32 11 2 C12.65 2 14.3 2 16 2 C16.66 3.32 17.32 4.64 18 6 C17.01 7.485 17.01 7.485 16 9 C15.01 9 14.02 9 13 9 C13 10.65 13 12.3 13 14 C12.34 14 11.68 14 11 14 C11.02320313 14.68707031 11.04640625 15.37414062 11.0703125 16.08203125 C11.09738281 17.43361328 11.09738281 17.43361328 11.125 18.8125 C11.14820313 19.70582031 11.17140625 20.59914063 11.1953125 21.51953125 C11 24 11 24 9 27 C9.66 27 10.32 27 11 27 C11.04254356 28.99954746 11.04080783 31.00041636 11 33 C10 34 10 34 6.4375 34.0625 C5.303125 34.041875 4.16875 34.02125 3 34 C3 33.34 3 32.68 3 32 C1.205625 32.0928125 1.205625 32.0928125 -0.625 32.1875 C-4.73497595 32.20943937 -7.4478261 31.13130434 -11 29 C-11 28.34 -11 27.68 -11 27 C-11.99 26.67 -12.98 26.34 -14 26 C-14.88550512 15.71830161 -14.88550512 15.71830161 -13.015625 12.08984375 C-9.85657859 9.04615578 -6.92571835 8.73026282 -2.625 8.6875 C-1.08187295 8.76715995 0.46089264 8.86312286 2 9 C2 7.68 2 6.36 2 5 C1.34 5 0.68 5 0 5 C0 3.35 0 1.7 0 0 Z M-2 18 C-2.66 18.66 -3.32 19.32 -4 20 C-4 20.99 -4 21.98 -4 23 C-3.34 23 -2.68 23 -2 23 C-2 23.66 -2 24.32 -2 25 C-1.34 25 -0.68 25 0 25 C0 22.69 0 20.38 0 18 C-0.66 18 -1.32 18 -2 18 Z " fill="#000000" transform="translate(254,445)"/>
<path d="M0 0 C2.4294516 3.6441774 2.16179575 5.71241272 2 10 C0.35 10.33 -1.3 10.66 -3 11 C-3 11.66 -3 12.32 -3 13 C-1.35 13 0.3 13 2 13 C2 13.66 2 14.32 2 15 C2.66 15 3.32 15 4 15 C6.48672711 18.03933313 7.01411157 19.5978202 6.875 23.5625 C5.85631246 27.56448677 4.81066632 29.77398256 1.37890625 32.09765625 C-1.97992832 33.37169695 -5.21629007 33.21116945 -8.75 33.125 C-11.1425 33.08375 -13.535 33.0425 -16 33 C-16 27.72 -16 22.44 -16 17 C-16.66 17 -17.32 17 -18 17 C-21.125 10.375 -21.125 10.375 -20 7 C-19.34 7 -18.68 7 -18 7 C-18 6.01 -18 5.02 -18 4 C-17.34 4 -16.68 4 -16 4 C-16 3.34 -16 2.68 -16 2 C-10.38561371 -0.25339314 -6.04902331 -1.72829238 0 0 Z M-9 6 C-9 7.32 -9 8.64 -9 10 C-7.68 10.33 -6.36 10.66 -5 11 C-5 10.34 -5 9.68 -5 9 C-5.66 9 -6.32 9 -7 9 C-7 8.01 -7 7.02 -7 6 C-7.66 6 -8.32 6 -9 6 Z M-9 22 C-8.67 23.32 -8.34 24.64 -8 26 C-7.01 26 -6.02 26 -5 26 C-5 24.68 -5 23.36 -5 22 C-6.32 22 -7.64 22 -9 22 Z " fill="#000000" transform="translate(263,12)"/>
<path d="M0 0 C1.67542976 0.28604898 3.34385343 0.61781233 5 1 C5 1.66 5 2.32 5 3 C5.66 3 6.32 3 7 3 C7 3.66 7 4.32 7 5 C9.475 5.99 9.475 5.99 12 7 C12 7.99 12 8.98 12 10 C12.66 10 13.32 10 14 10 C13.67 11.32 13.34 12.64 13 14 C11.02 14 9.04 14 7 14 C7 14.66 7 15.32 7 16 C6.34 16 5.68 16 5 16 C5 16.66 5 17.32 5 18 C4.34 18 3.68 18 3 18 C3 18.66 3 19.32 3 20 C2.34 20 1.68 20 1 20 C0.67 20.99 0.34 21.98 0 23 C-0.66 23 -1.32 23 -2 23 C-2 23.66 -2 24.32 -2 25 C-2.66 25 -3.32 25 -4 25 C-4 25.66 -4 26.32 -4 27 C-3.01 26.34 -2.02 25.68 -1 25 C1.625 24.8125 1.625 24.8125 4 25 C5 26 5 26 5.0625 28.5625 C5.041875 29.366875 5.02125 30.17125 5 31 C4.34 31 3.68 31 3 31 C3 31.99 3 32.98 3 34 C2.34 34 1.68 34 1 34 C1 34.66 1 35.32 1 36 C-2 38 -2 38 -4.0625 37.6875 C-6 37 -6 37 -8 36 C-8 35.34 -8 34.68 -8 34 C-8.66 34 -9.32 34 -10 34 C-10 33.34 -10 32.68 -10 32 C-10.639375 31.731875 -11.27875 31.46375 -11.9375 31.1875 C-14 30 -14 30 -15 27 C-15.66 27 -16.32 27 -17 27 C-17 26.34 -17 25.68 -17 25 C-17.66 25 -18.32 25 -19 25 C-19 24.34 -19 23.68 -19 23 C-19.639375 22.7525 -20.27875 22.505 -20.9375 22.25 C-23 21 -23 21 -23.9375 19.0625 C-24 17 -24 17 -22.6875 15.25 C-21 14 -21 14 -19 14 C-19 13.34 -19 12.68 -19 12 C-16 10 -16 10 -13 10 C-11 14.75 -11 14.75 -11 17 C-10.01 16.67 -9.02 16.34 -8 16 C-8 15.34 -8 14.68 -8 14 C-7.34 14 -6.68 14 -6 14 C-5.566875 12.88625 -5.566875 12.88625 -5.125 11.75 C-4 9 -4 9 -2.9375 6.9375 C-1.98660571 4.97231847 -1.5103054 3.11412239 -1 1 C-0.67 0.67 -0.34 0.34 0 0 Z " fill="#000000" transform="translate(157,391)"/>
<path d="M0 0 C0.99 0 1.98 0 3 0 C3 0.66 3 1.32 3 2 C3.66 2 4.32 2 5 2 C5.50559908 3.43554025 6.0042749 4.8735202 6.5 6.3125 C6.7784375 7.11300781 7.056875 7.91351563 7.34375 8.73828125 C8 11 8 11 8 14 C8.66 14 9.32 14 10 14 C10 15.32 10 16.64 10 18 C10.66 18 11.32 18 12 18 C14.04169485 20.90548882 15 22.40142046 15 26 C15.66 26 16.32 26 17 26 C17.1875 29.375 17.1875 29.375 17 33 C14 35 14 35 10 35 C10 34.34 10 33.68 10 33 C7.69 33 5.38 33 3 33 C3 32.34 3 31.68 3 31 C1.02 31 -0.96 31 -3 31 C-3 30.34 -3 29.68 -3 29 C-3.969375 29.020625 -4.93875 29.04125 -5.9375 29.0625 C-9 29 -9 29 -10 28 C-11.34747084 27.76924918 -12.70377565 27.58846937 -14.0625 27.4375 C-15.361875 27.293125 -16.66125 27.14875 -18 27 C-18.33 25.35 -18.66 23.7 -19 22 C-18.34 22 -17.68 22 -17 22 C-16.731875 21.2575 -16.46375 20.515 -16.1875 19.75 C-15.01882907 17.04360415 -14.04406831 15.11977455 -12 13 C-9.3125 12.25 -9.3125 12.25 -7 12 C-6.773125 11.13375 -6.54625 10.2675 -6.3125 9.375 C-4.73024094 5.30633384 -3.04233058 3.11653376 0 0 Z M-6 13 C-5.81171228 15.44480079 -5.81171228 15.44480079 -5 18 C-3.25 19.5 -3.25 19.5 -1 20 C1.19747131 19.70194993 1.19747131 19.70194993 3 19 C2.34 17.68 1.68 16.36 1 15 C0.34 15 -0.32 15 -1 15 C-1 14.34 -1 13.68 -1 13 C-2.65 13 -4.3 13 -6 13 Z " fill="#000000" transform="translate(132,79)"/>
<path d="M0 0 C0.78375 0.2475 1.5675 0.495 2.375 0.75 C3.8533226 3.70664519 3.43532783 6.49229737 3.375 9.75 C4.035 9.75 4.695 9.75 5.375 9.75 C5.375 10.74 5.375 11.73 5.375 12.75 C3.0489143 13.13063221 0.71444736 13.46269945 -1.625 13.75 C-1.955 13.42 -2.285 13.09 -2.625 12.75 C-2.295 13.74 -1.965 14.73 -1.625 15.75 C-1.58545766 18.08299825 -1.58098268 20.41708189 -1.625 22.75 C-0.965 22.75 -0.305 22.75 0.375 22.75 C0.705 24.07 1.035 25.39 1.375 26.75 C2.695 26.75 4.015 26.75 5.375 26.75 C5.375 28.07 5.375 29.39 5.375 30.75 C6.035 31.08 6.695 31.41 7.375 31.75 C5.375 33.75 5.375 33.75 2.75 33.875 C1.96625 33.83375 1.1825 33.7925 0.375 33.75 C0.375 34.41 0.375 35.07 0.375 35.75 C-1.275 35.75 -2.925 35.75 -4.625 35.75 C-4.625 36.41 -4.625 37.07 -4.625 37.75 C-6.29111905 37.792721 -7.95882885 37.79063832 -9.625 37.75 C-10.625 36.75 -10.625 36.75 -10.6875 34.1875 C-10.666875 33.383125 -10.64625 32.57875 -10.625 31.75 C-9.965 31.75 -9.305 31.75 -8.625 31.75 C-8.625 30.76 -8.625 29.77 -8.625 28.75 C-9.285 28.75 -9.945 28.75 -10.625 28.75 C-10.625 26.77 -10.625 24.79 -10.625 22.75 C-11.285 22.75 -11.945 22.75 -12.625 22.75 C-12.625 21.1 -12.625 19.45 -12.625 17.75 C-13.285 17.75 -13.945 17.75 -14.625 17.75 C-14.625 16.43 -14.625 15.11 -14.625 13.75 C-16.59322886 15.71822886 -16.28748381 19.09808709 -16.625 21.75 C-17.945 22.08 -19.265 22.41 -20.625 22.75 C-20.955 21.76 -21.285 20.77 -21.625 19.75 C-22.285 19.75 -22.945 19.75 -23.625 19.75 C-23.625 18.43 -23.625 17.11 -23.625 15.75 C-24.285 15.75 -24.945 15.75 -25.625 15.75 C-26.625 12.75 -26.625 12.75 -25.6875 10.5625 C-25.1615625 9.6653125 -25.1615625 9.6653125 -24.625 8.75 C-23.305 8.75 -21.985 8.75 -20.625 8.75 C-20.625 8.09 -20.625 7.43 -20.625 6.75 C-18.645 6.75 -16.665 6.75 -14.625 6.75 C-14.625 6.09 -14.625 5.43 -14.625 4.75 C-14.01011719 4.55664062 -13.39523438 4.36328125 -12.76171875 4.1640625 C-11.95347656 3.90367188 -11.14523438 3.64328125 -10.3125 3.375 C-9.51199219 3.11976562 -8.71148437 2.86453125 -7.88671875 2.6015625 C-0.77981172 -0.07426778 -0.77981172 -0.07426778 0 0 Z M-5.625 8.75 C-5.625 9.74 -5.625 10.73 -5.625 11.75 C-4.965 11.75 -4.305 11.75 -3.625 11.75 C-3.955 10.76 -4.285 9.77 -4.625 8.75 C-4.955 8.75 -5.285 8.75 -5.625 8.75 Z " fill="#000000" transform="translate(230.625,18.25)"/>
<path d="M0 0 C1.79244141 0.01740234 1.79244141 0.01740234 3.62109375 0.03515625 C5.41740234 0.04869141 5.41740234 0.04869141 7.25 0.0625 C8.17683594 0.07410156 9.10367188 0.08570313 10.05859375 0.09765625 C10.05859375 2.07765625 10.05859375 4.05765625 10.05859375 6.09765625 C8.40859375 6.42765625 6.75859375 6.75765625 5.05859375 7.09765625 C5.05859375 7.75765625 5.05859375 8.41765625 5.05859375 9.09765625 C7.36859375 9.09765625 9.67859375 9.09765625 12.05859375 9.09765625 C12.05859375 9.42765625 12.05859375 9.75765625 12.05859375 10.09765625 C17.50359375 10.59265625 17.50359375 10.59265625 23.05859375 11.09765625 C23.05859375 10.43765625 23.05859375 9.77765625 23.05859375 9.09765625 C24.70859375 9.09765625 26.35859375 9.09765625 28.05859375 9.09765625 C28.0855106 11.5560623 28.10539177 14.01417507 28.12109375 16.47265625 C28.12947266 17.17132813 28.13785156 17.87 28.14648438 18.58984375 C28.171875 23.87109375 28.171875 23.87109375 27.05859375 26.09765625 C25.40859375 25.76765625 23.75859375 25.43765625 22.05859375 25.09765625 C21.72859375 24.10765625 21.39859375 23.11765625 21.05859375 22.09765625 C19.73859375 22.09765625 18.41859375 22.09765625 17.05859375 22.09765625 C17.05859375 21.43765625 17.05859375 20.77765625 17.05859375 20.09765625 C13.09859375 20.42765625 9.13859375 20.75765625 5.05859375 21.09765625 C6.04859375 21.75765625 7.03859375 22.41765625 8.05859375 23.09765625 C7.72859375 25.07765625 7.39859375 27.05765625 7.05859375 29.09765625 C5.07949977 29.12452178 3.10030404 29.14399 1.12109375 29.16015625 C0.01894531 29.17175781 -1.08320312 29.18335938 -2.21875 29.1953125 C-4.94140625 29.09765625 -4.94140625 29.09765625 -5.94140625 28.09765625 C-6.01320589 26.57837587 -6.02532632 25.05598143 -6.00390625 23.53515625 C-5.99488281 22.70886719 -5.98585938 21.88257813 -5.9765625 21.03125 C-5.96496094 20.39316406 -5.95335938 19.75507813 -5.94140625 19.09765625 C-5.28140625 19.09765625 -4.62140625 19.09765625 -3.94140625 19.09765625 C-3.95300781 17.80988281 -3.96460937 16.52210938 -3.9765625 15.1953125 C-3.98593895 13.51692853 -3.9950393 11.83854299 -4.00390625 10.16015625 C-4.01647461 8.88495117 -4.01647461 8.88495117 -4.02929688 7.58398438 C-4.03251953 6.77509766 -4.03574219 5.96621094 -4.0390625 5.1328125 C-4.04429932 4.38394775 -4.04953613 3.63508301 -4.05493164 2.86352539 C-3.85731972 -0.2102961 -3.10904993 0.10322211 0 0 Z " fill="#000000" transform="translate(71.94140625,203.90234375)"/>
<path d="M0 0 C1.67542976 0.28604898 3.34385343 0.61781233 5 1 C5.33 2.32 5.66 3.64 6 5 C6.66 5 7.32 5 8 5 C8 5.99 8 6.98 8 8 C8.66 8 9.32 8 10 8 C10 8.99 10 9.98 10 11 C10.66 11 11.32 11 12 11 C12 11.99 12 12.98 12 14 C12.598125 14.268125 13.19625 14.53625 13.8125 14.8125 C16.87260694 16.47370091 18.62664277 17.81204519 19.6875 21.1875 C19.790625 21.785625 19.89375 22.38375 20 23 C21.093125 22.95875 22.18625 22.9175 23.3125 22.875 C27 23 27 23 30 25 C30.3125 27.5 30.3125 27.5 30 30 C29.34 30.66 28.68 31.32 28 32 C26.68 32 25.36 32 24 32 C24 31.34 24 30.68 24 30 C23.01 29.67 22.02 29.34 21 29 C21 28.34 21 27.68 21 27 C20.34 27 19.68 27 19 27 C19 26.34 19 25.68 19 25 C18.236875 25.04125 17.47375 25.0825 16.6875 25.125 C14 25 14 25 11 23 C11 22.34 11 21.68 11 21 C10.01 20.67 9.02 20.34 8 20 C8 19.34 8 18.68 8 18 C7.34 18 6.68 18 6 18 C3.70351351 15.4385343 3 14.52032428 3 11 C2.34 11 1.68 11 1 11 C1 9.68 1 8.36 1 7 C0.34 7 -0.32 7 -1 7 C-1.04254356 5.00045254 -1.04080783 2.99958364 -1 1 C-0.67 0.67 -0.34 0.34 0 0 Z " fill="#000000" transform="translate(255,277)"/>
<path d="M0 0 C2 0.75 2 0.75 4 3.75 C4.125 6.4375 4.125 6.4375 4 8.75 C2.35 9.08 0.7 9.41 -1 9.75 C-3.0625 7.5 -3.0625 7.5 -5 4.75 C-4.875 2.5 -4.875 2.5 -4 0.75 C-2 -0.25 -2 -0.25 0 0 Z " fill="#000000" transform="translate(254,266.25)"/>
<path d="M0 0 C0.33 0 0.66 0 1 0 C1 8.58 1 17.16 1 26 C0.67 26 0.34 26 0 26 C0 17.42 0 8.84 0 0 Z " fill="#000000" transform="translate(331,317)"/>
<path d="" fill="#000000" transform="translate(0,0)"/>
</svg>
