<svg xmlns="http://www.w3.org/2000/svg" viewBox="0 0 1024 1024" preserveAspectRatio="xMidYMid meet"><g><path d="M0 0 C337.92 0 675.84 0 1024 0 C1024 337.92 1024 675.84 1024 1024 C686.08 1024 348.16 1024 0 1024 C0 686.08 0 348.16 0 0 Z " fill="#FEFEFE" transform="translate(0,0)"/></g><g><path d="M0 0 C4.384 2.099 7.203 4.879 10 8.812 C11 12 11 12 11 21 C23.87 21 36.74 21 50 21 C50 17.7 50 14.4 50 11 C52.493 6.013 55.994 2.503 61 0 C65.899 -0.537 69.845 -0.567 74.312 1.625 C79.845 6.514 79.845 6.514 82 10 C82 13.63 82 17.26 82 21 C110.71 21 139.42 21 169 21 C169 17.37 169 13.74 169 10 C170.426 7.246 170.426 7.246 172.312 5.438 C172.927 4.817 173.542 4.197 174.176 3.559 C178.643 -0.258 181.586 -0.429 187.273 -0.316 C192.393 0.278 195.023 2.891 198.312 6.625 C202.23 12.139 201 12.073 201 21 C213.21 21 225.42 21 238 21 C238 17.7 238 14.4 238 11 C240.493 6.013 243.994 2.503 249 0 C253.955 -0.544 257.871 -0.564 262.375 1.688 C265.527 4.464 268.113 7.226 270 11 C270.07 12.54 270.085 14.083 270.062 15.625 C270.053 16.442 270.044 17.26 270.035 18.102 C270.018 19.041 270.018 19.041 270 20 C271.198 19.942 272.395 19.884 273.629 19.824 C288.094 19.335 300.614 20.872 311.922 30.906 C320.679 39.729 325.527 49.512 325.673 62.044 C325.663 63.294 325.652 64.545 325.642 65.833 C325.648 67.202 325.657 68.571 325.667 69.939 C325.69 73.673 325.682 77.406 325.668 81.14 C325.659 85.177 325.679 89.215 325.694 93.253 C325.72 101.152 325.719 109.051 325.708 116.951 C325.7 123.375 325.701 129.799 325.708 136.223 C325.709 137.139 325.71 138.055 325.711 138.998 C325.713 140.859 325.716 142.72 325.718 144.581 C325.737 162.016 325.725 179.45 325.703 196.885 C325.685 211.824 325.696 226.763 325.727 241.702 C325.764 259.072 325.781 276.442 325.768 293.811 C325.767 295.666 325.765 297.521 325.764 299.376 C325.763 300.744 325.763 300.744 325.762 302.141 C325.759 308.551 325.77 314.961 325.787 321.371 C325.808 329.192 325.807 337.013 325.779 344.834 C325.765 348.82 325.76 352.805 325.783 356.791 C325.802 360.448 325.794 364.105 325.764 367.763 C325.756 369.693 325.776 371.624 325.798 373.555 C325.624 387.16 320.425 397.856 310.879 407.434 C306.889 410.99 302.764 413.614 298 416 C296.453 416.866 296.453 416.866 294.875 417.75 C286.899 421.218 279.399 421.289 270.818 421.267 C269.484 421.271 268.149 421.276 266.814 421.281 C263.161 421.293 259.508 421.293 255.855 421.291 C251.91 421.29 247.964 421.301 244.019 421.311 C236.294 421.327 228.569 421.333 220.845 421.334 C214.564 421.335 208.282 421.339 202.001 421.346 C184.18 421.363 166.359 421.372 148.537 421.371 C147.577 421.371 146.617 421.371 145.628 421.371 C144.186 421.37 144.186 421.37 142.715 421.37 C127.139 421.37 111.564 421.389 95.988 421.417 C79.982 421.446 63.976 421.459 47.97 421.458 C38.989 421.457 30.009 421.462 21.028 421.484 C13.381 421.502 5.734 421.507 -1.913 421.493 C-5.811 421.487 -9.709 421.486 -13.608 421.504 C-17.183 421.52 -20.758 421.517 -24.334 421.499 C-26.225 421.495 -28.117 421.51 -30.008 421.526 C-44.626 421.408 -57.374 415.932 -68.121 406.031 C-78.389 394.93 -81.615 382.018 -81.508 367.255 C-81.513 365.908 -81.519 364.56 -81.527 363.213 C-81.543 359.544 -81.535 355.876 -81.523 352.207 C-81.514 348.238 -81.528 344.269 -81.539 340.299 C-81.557 332.537 -81.553 324.774 -81.541 317.012 C-81.532 310.701 -81.531 304.39 -81.535 298.078 C-81.536 297.178 -81.536 296.279 -81.537 295.351 C-81.538 293.523 -81.54 291.694 -81.541 289.866 C-81.552 272.741 -81.539 255.616 -81.518 238.492 C-81.5 223.812 -81.503 209.133 -81.521 194.453 C-81.543 177.386 -81.551 160.319 -81.539 143.252 C-81.538 141.43 -81.537 139.609 -81.535 137.788 C-81.535 136.892 -81.534 135.996 -81.533 135.073 C-81.53 128.772 -81.536 122.471 -81.545 116.17 C-81.556 108.488 -81.553 100.805 -81.532 93.123 C-81.522 89.207 -81.517 85.291 -81.531 81.374 C-81.543 77.783 -81.536 74.193 -81.515 70.603 C-81.508 68.7 -81.521 66.798 -81.535 64.896 C-81.43 53.315 -78.127 44.121 -71 35 C-70.522 34.384 -70.044 33.768 -69.551 33.133 C-63.938 26.771 -54.378 21.624 -46 20 C-44.048 19.919 -42.094 19.892 -40.141 19.902 C-39.026 19.906 -37.911 19.909 -36.762 19.912 C-35.603 19.92 -34.444 19.929 -33.25 19.938 C-32.076 19.942 -30.901 19.947 -29.691 19.951 C-26.794 19.963 -23.897 19.979 -21 20 C-21.019 19.317 -21.038 18.635 -21.057 17.931 C-21.079 16.585 -21.079 16.585 -21.102 15.211 C-21.12 14.322 -21.139 13.433 -21.159 12.517 C-20.841 7.485 -17.966 4.895 -14.438 1.625 C-9.534 -0.693 -5.325 -0.996 0 0 Z " fill="#FEFEFE" transform="translate(390,249)"/></g><g><path d="M0 0 C4.384 2.099 7.203 4.879 10 8.812 C11 12 11 12 11 21 C23.87 21 36.74 21 50 21 C50 17.7 50 14.4 50 11 C52.493 6.013 55.994 2.503 61 0 C65.899 -0.537 69.845 -0.567 74.312 1.625 C79.845 6.514 79.845 6.514 82 10 C82 13.63 82 17.26 82 21 C110.71 21 139.42 21 169 21 C169 17.37 169 13.74 169 10 C170.426 7.246 170.426 7.246 172.312 5.438 C172.927 4.817 173.542 4.197 174.176 3.559 C178.643 -0.258 181.586 -0.429 187.273 -0.316 C192.393 0.278 195.023 2.891 198.312 6.625 C202.23 12.139 201 12.073 201 21 C213.21 21 225.42 21 238 21 C238 17.7 238 14.4 238 11 C240.493 6.013 243.994 2.503 249 0 C253.955 -0.544 257.871 -0.564 262.375 1.688 C265.527 4.464 268.113 7.226 270 11 C270.07 12.54 270.085 14.083 270.062 15.625 C270.053 16.442 270.044 17.26 270.035 18.102 C270.018 19.041 270.018 19.041 270 20 C271.198 19.942 272.395 19.884 273.629 19.824 C288.094 19.335 300.614 20.872 311.922 30.906 C320.679 39.729 325.527 49.512 325.673 62.044 C325.663 63.294 325.652 64.545 325.642 65.833 C325.648 67.202 325.657 68.571 325.667 69.939 C325.69 73.673 325.682 77.406 325.668 81.14 C325.659 85.177 325.679 89.215 325.694 93.253 C325.72 101.152 325.719 109.051 325.708 116.951 C325.7 123.375 325.701 129.799 325.708 136.223 C325.709 137.139 325.71 138.055 325.711 138.998 C325.713 140.859 325.716 142.72 325.718 144.581 C325.737 162.016 325.725 179.45 325.703 196.885 C325.685 211.824 325.696 226.763 325.727 241.702 C325.764 259.072 325.781 276.442 325.768 293.811 C325.767 295.666 325.765 297.521 325.764 299.376 C325.763 300.744 325.763 300.744 325.762 302.141 C325.759 308.551 325.77 314.961 325.787 321.371 C325.808 329.192 325.807 337.013 325.779 344.834 C325.765 348.82 325.76 352.805 325.783 356.791 C325.802 360.448 325.794 364.105 325.764 367.763 C325.756 369.693 325.776 371.624 325.798 373.555 C325.624 387.16 320.425 397.856 310.879 407.434 C306.889 410.99 302.764 413.614 298 416 C296.453 416.866 296.453 416.866 294.875 417.75 C286.899 421.218 279.399 421.289 270.818 421.267 C269.484 421.271 268.149 421.276 266.814 421.281 C263.161 421.293 259.508 421.293 255.855 421.291 C251.91 421.29 247.964 421.301 244.019 421.311 C236.294 421.327 228.569 421.333 220.845 421.334 C214.564 421.335 208.282 421.339 202.001 421.346 C184.18 421.363 166.359 421.372 148.537 421.371 C147.577 421.371 146.617 421.371 145.628 421.371 C144.186 421.37 144.186 421.37 142.715 421.37 C127.139 421.37 111.564 421.389 95.988 421.417 C79.982 421.446 63.976 421.459 47.97 421.458 C38.989 421.457 30.009 421.462 21.028 421.484 C13.381 421.502 5.734 421.507 -1.913 421.493 C-5.811 421.487 -9.709 421.486 -13.608 421.504 C-17.183 421.52 -20.758 421.517 -24.334 421.499 C-26.225 421.495 -28.117 421.51 -30.008 421.526 C-44.626 421.408 -57.374 415.932 -68.121 406.031 C-78.389 394.93 -81.615 382.018 -81.508 367.255 C-81.513 365.908 -81.519 364.56 -81.527 363.213 C-81.543 359.544 -81.535 355.876 -81.523 352.207 C-81.514 348.238 -81.528 344.269 -81.539 340.299 C-81.557 332.537 -81.553 324.774 -81.541 317.012 C-81.532 310.701 -81.531 304.39 -81.535 298.078 C-81.536 297.178 -81.536 296.279 -81.537 295.351 C-81.538 293.523 -81.54 291.694 -81.541 289.866 C-81.552 272.741 -81.539 255.616 -81.518 238.492 C-81.5 223.812 -81.503 209.133 -81.521 194.453 C-81.543 177.386 -81.551 160.319 -81.539 143.252 C-81.538 141.43 -81.537 139.609 -81.535 137.788 C-81.535 136.892 -81.534 135.996 -81.533 135.073 C-81.53 128.772 -81.536 122.471 -81.545 116.17 C-81.556 108.488 -81.553 100.805 -81.532 93.123 C-81.522 89.207 -81.517 85.291 -81.531 81.374 C-81.543 77.783 -81.536 74.193 -81.515 70.603 C-81.508 68.7 -81.521 66.798 -81.535 64.896 C-81.43 53.315 -78.127 44.121 -71 35 C-70.522 34.384 -70.044 33.768 -69.551 33.133 C-63.938 26.771 -54.378 21.624 -46 20 C-44.048 19.919 -42.094 19.892 -40.141 19.902 C-39.026 19.906 -37.911 19.909 -36.762 19.912 C-35.603 19.92 -34.444 19.929 -33.25 19.938 C-32.076 19.942 -30.901 19.947 -29.691 19.951 C-26.794 19.963 -23.897 19.979 -21 20 C-21.019 19.317 -21.038 18.635 -21.057 17.931 C-21.079 16.585 -21.079 16.585 -21.102 15.211 C-21.12 14.322 -21.139 13.433 -21.159 12.517 C-20.841 7.485 -17.966 4.895 -14.438 1.625 C-9.534 -0.693 -5.325 -0.996 0 0 Z M-65 43 C-69.188 49.014 -71.121 54.178 -71.134 61.503 C-71.139 62.629 -71.143 63.754 -71.148 64.914 C-71.148 66.151 -71.147 67.388 -71.147 68.663 C-71.151 69.977 -71.155 71.29 -71.158 72.644 C-71.168 76.295 -71.172 79.945 -71.175 83.596 C-71.179 87.532 -71.188 91.468 -71.197 95.404 C-71.217 104.912 -71.227 114.421 -71.236 123.929 C-71.24 128.408 -71.245 132.888 -71.251 137.367 C-71.268 152.261 -71.282 167.155 -71.289 182.049 C-71.291 185.913 -71.293 189.778 -71.295 193.643 C-71.296 194.604 -71.296 195.564 -71.297 196.554 C-71.305 212.107 -71.33 227.661 -71.363 243.214 C-71.396 259.188 -71.414 275.162 -71.417 291.136 C-71.419 300.102 -71.428 309.069 -71.453 318.035 C-71.475 325.673 -71.483 333.311 -71.474 340.949 C-71.469 344.843 -71.471 348.737 -71.49 352.631 C-71.508 356.203 -71.507 359.775 -71.491 363.346 C-71.488 365.236 -71.504 367.126 -71.521 369.016 C-71.431 381.047 -68.534 391.258 -60 400 C-52.648 406.586 -44.504 411.119 -34.528 411.131 C-33.409 411.135 -32.291 411.139 -31.138 411.143 C-29.909 411.142 -28.68 411.141 -27.413 411.14 C-25.455 411.145 -25.455 411.145 -23.456 411.149 C-19.829 411.158 -16.201 411.159 -12.573 411.16 C-8.662 411.162 -4.75 411.169 -0.839 411.176 C7.717 411.19 16.274 411.196 24.83 411.2 C30.174 411.203 35.518 411.207 40.863 411.212 C55.664 411.224 70.465 411.234 85.266 411.238 C86.688 411.238 86.688 411.238 88.137 411.238 C89.087 411.238 90.037 411.239 91.015 411.239 C92.94 411.239 94.864 411.24 96.789 411.24 C98.22 411.241 98.22 411.241 99.681 411.241 C115.138 411.245 130.594 411.262 146.05 411.286 C161.925 411.309 177.799 411.322 193.674 411.323 C202.585 411.324 211.495 411.33 220.406 411.348 C227.996 411.363 235.586 411.368 243.177 411.36 C247.046 411.356 250.916 411.357 254.786 411.371 C258.99 411.386 263.193 411.378 267.397 411.367 C269.214 411.38 269.214 411.38 271.068 411.392 C282.102 411.328 292.037 409.723 301 403 C302.031 402.278 303.062 401.556 304.125 400.812 C309.826 395.874 313.649 388.355 315 381 C315.297 376.589 315.283 372.186 315.274 367.767 C315.279 366.414 315.284 365.062 315.29 363.709 C315.304 360.002 315.306 356.296 315.305 352.589 C315.307 348.588 315.32 344.586 315.332 340.585 C315.354 331.841 315.362 323.098 315.367 314.354 C315.371 308.893 315.377 303.432 315.384 297.971 C315.404 282.845 315.42 267.719 315.423 252.594 C315.424 251.143 315.424 251.143 315.424 249.662 C315.424 247.701 315.425 245.74 315.425 243.779 C315.425 242.806 315.425 241.832 315.426 240.83 C315.426 239.855 315.426 238.88 315.426 237.876 C315.43 222.079 315.457 206.281 315.494 190.483 C315.532 174.257 315.551 158.031 315.552 141.805 C315.552 132.697 315.561 123.59 315.59 114.482 C315.614 106.728 315.622 98.975 315.607 91.221 C315.599 87.267 315.6 83.312 315.623 79.358 C315.644 75.734 315.641 72.111 315.62 68.488 C315.615 66.563 315.634 64.638 315.655 62.714 C315.582 55.194 314.414 50.134 310 44 C309.608 43.441 309.217 42.882 308.813 42.306 C304.403 36.532 298.025 31.961 291 30 C287.177 29.653 283.397 29.715 279.562 29.812 C278.036 29.833 278.036 29.833 276.479 29.854 C273.985 29.889 271.493 29.938 269 30 C268.946 32.917 268.906 35.833 268.875 38.75 C268.858 39.575 268.841 40.4 268.824 41.25 C268.818 42.049 268.811 42.848 268.805 43.672 C268.794 44.405 268.784 45.138 268.773 45.894 C269.033 48.309 269.85 49.88 271 52 C271.906 57.607 271.04 62.337 268.277 67.273 C265.602 70.89 262.173 72.609 258 74 C251.277 74.706 247.287 74.229 242 70 C241.34 70 240.68 70 240 70 C239.536 68.824 239.536 68.824 239.062 67.625 C238.071 65.077 238.071 65.077 237 63 C236.903 60.835 236.87 58.667 236.875 56.5 C236.872 55.335 236.87 54.169 236.867 52.969 C237 50 237 50 238 48 C238 42.06 238 36.12 238 30 C225.46 30 212.92 30 200 30 C198.658 46.062 198.658 46.062 202 52 C202.906 57.607 202.04 62.337 199.277 67.273 C196.602 70.89 193.173 72.609 189 74 C182.752 74.777 177.88 74.346 172.695 70.609 C169.098 67.195 167.273 63.481 166.73 58.555 C166.628 52.745 166.628 52.745 168 50 C168 43.73 168 37.46 168 31 C139.62 31 111.24 31 82 31 C81.445 41.171 81.445 41.171 83 51 C83.752 57.647 83.527 62.861 79.465 68.34 C76.334 71.888 73.95 73.742 69.16 74.375 C64.416 74.563 60.916 74.416 56.562 72.438 C49.287 65.517 49.287 65.517 48.656 59.984 C48.615 55.736 48.651 52.048 50 48 C50 42.06 50 36.12 50 30 C36.8 30 23.6 30 10 30 C8.886 46.112 8.886 46.112 12 53 C12.698 58.986 11.78 62.863 8.605 68.012 C5.32 72.08 1.62 73.567 -3.457 74.406 C-8.935 74.743 -12.914 73.773 -17.371 70.531 C-21.078 67.046 -21.878 63.827 -22.203 58.953 C-22.322 50.645 -22.322 50.645 -21 48 C-20.917 46.625 -20.893 45.245 -20.902 43.867 C-20.906 43.062 -20.909 42.256 -20.912 41.426 C-20.92 40.584 -20.929 39.742 -20.938 38.875 C-20.942 38.026 -20.947 37.176 -20.951 36.301 C-20.963 34.2 -20.981 32.1 -21 30 C-24.791 29.882 -28.582 29.812 -32.375 29.75 C-33.436 29.716 -34.497 29.683 -35.59 29.648 C-48.172 29.494 -56.586 33.662 -65 43 Z " fill="#0A0A0A" transform="translate(390,249)"/></g><g><path d="M0 0 C1.215 -0.02 2.43 -0.04 3.682 -0.061 C14.966 -0.054 14.966 -0.054 19.562 4.438 C24.699 9.874 24.195 15.742 24.125 22.812 C24.161 24.46 24.161 24.46 24.197 26.141 C24.185 32.93 23.467 38.391 18.562 43.438 C17.903 43.438 17.242 43.438 16.562 43.438 C17.195 44.161 17.195 44.161 17.84 44.898 C18.388 45.53 18.936 46.162 19.5 46.812 C20.045 47.439 20.591 48.065 21.152 48.711 C25.104 53.549 23.914 60.171 24 66.125 C24.046 67.393 24.092 68.661 24.139 69.967 C24.265 80.479 24.265 80.479 20.723 84.707 C14.612 90.572 8.849 89.804 0.75 89.812 C-0.522 89.837 -1.793 89.861 -3.104 89.887 C-13.562 89.92 -13.562 89.92 -17.137 87.727 C-22.704 82.187 -22.868 77.573 -22.945 69.982 C-22.943 68.668 -22.94 67.354 -22.938 66 C-22.966 64.69 -22.994 63.379 -23.023 62.029 C-23.045 51.304 -23.045 51.304 -19.906 47.527 C-19.092 46.838 -18.277 46.148 -17.438 45.438 C-18.503 43.224 -19.593 41.211 -20.985 39.179 C-23.648 34.152 -22.907 28.574 -22.875 23 C-22.895 21.785 -22.915 20.57 -22.936 19.318 C-22.929 8.037 -22.929 8.037 -18.438 3.438 C-12.626 -0.733 -6.908 -0.04 0 0 Z " fill="#0A0A0A" transform="translate(573.4375,509.5625)"/></g><g><path d="M0 0 C0.935 -0.003 1.87 -0.005 2.833 -0.008 C3.872 -0.006 4.911 -0.003 5.982 -0.001 C7.624 -0.003 7.624 -0.003 9.299 -0.006 C12.997 -0.01 16.695 -0.007 20.394 -0.004 C23.032 -0.005 25.671 -0.007 28.31 -0.009 C34.752 -0.013 41.194 -0.012 47.636 -0.009 C52.869 -0.007 58.102 -0.007 63.335 -0.008 C64.078 -0.008 64.822 -0.008 65.588 -0.008 C67.098 -0.009 68.607 -0.009 70.117 -0.009 C84.293 -0.012 98.468 -0.009 112.643 -0.004 C124.819 0.001 136.996 0 149.172 -0.005 C163.295 -0.01 177.417 -0.012 191.54 -0.009 C193.045 -0.009 194.549 -0.008 196.054 -0.008 C196.794 -0.008 197.534 -0.008 198.297 -0.008 C203.527 -0.007 208.757 -0.008 213.987 -0.01 C220.356 -0.013 226.725 -0.013 233.094 -0.007 C236.347 -0.005 239.599 -0.004 242.852 -0.007 C246.37 -0.01 249.888 -0.006 253.406 -0.001 C254.965 -0.004 254.965 -0.004 256.555 -0.008 C257.49 -0.005 258.425 -0.003 259.389 0 C260.202 0 261.015 0 261.853 0 C263.694 0.126 263.694 0.126 264.694 1.126 C264.882 4.063 264.882 4.063 264.694 7.126 C262.255 9.565 261.646 9.377 258.302 9.383 C256.909 9.393 256.909 9.393 255.488 9.403 C253.947 9.398 253.947 9.398 252.376 9.393 C251.29 9.398 250.204 9.402 249.085 9.407 C245.422 9.42 241.76 9.418 238.097 9.416 C235.481 9.422 232.865 9.429 230.249 9.437 C223.866 9.453 217.483 9.459 211.1 9.46 C205.914 9.461 200.727 9.465 195.541 9.471 C180.848 9.489 166.155 9.498 151.463 9.497 C150.67 9.497 149.877 9.497 149.061 9.496 C147.87 9.496 147.87 9.496 146.656 9.496 C133.79 9.495 120.923 9.515 108.057 9.543 C94.857 9.571 81.658 9.585 68.458 9.584 C61.043 9.583 53.628 9.588 46.212 9.61 C39.241 9.63 32.271 9.629 25.3 9.615 C22.735 9.613 20.171 9.618 17.607 9.63 C14.118 9.645 10.629 9.636 7.14 9.62 C6.115 9.631 5.09 9.641 4.034 9.651 C3.103 9.642 2.172 9.633 1.212 9.624 C0.406 9.624 -0.4 9.624 -1.23 9.625 C-3.306 9.126 -3.306 9.126 -5.104 7.231 C-6.306 5.126 -6.306 5.126 -6.056 2.938 C-4.679 -0.388 -3.432 0.001 0 0 Z " fill="#0A0A0A" transform="translate(386.3057098388672,406.87415885925293)"/></g><g><path d="M0 0 C1.228 -0.029 2.457 -0.058 3.723 -0.088 C15.079 -0.168 15.079 -0.168 19.75 4.312 C23.282 8.08 24.259 10.34 24.281 15.496 C24.289 17.259 24.289 17.259 24.297 19.057 C24.281 20.275 24.266 21.494 24.25 22.75 C24.265 23.965 24.281 25.18 24.297 26.432 C24.247 37.703 24.247 37.703 19.75 42.312 C14.244 47.599 8.003 46.909 0.812 46.812 C-0.342 46.828 -1.496 46.843 -2.686 46.859 C-9.377 46.829 -13.936 46.535 -19.25 42.312 C-23.512 36.494 -22.839 30.454 -22.875 23.5 C-22.92 22.254 -22.965 21.008 -23.012 19.725 C-23.058 13.547 -22.97 9.299 -18.836 4.488 C-13.218 -0.967 -7.52 0.058 0 0 Z " fill="#0A0A0A" transform="translate(629.25,457.6875)"/></g><g><path d="M0 0 C2.008 -0.004 4.016 -0.041 6.024 -0.079 C7.299 -0.082 8.575 -0.086 9.889 -0.09 C11.053 -0.099 12.218 -0.107 13.417 -0.115 C18.445 0.626 21.465 2.765 24.561 6.748 C26.74 11.708 26.183 16.974 26.151 22.308 C26.181 24.059 26.181 24.059 26.211 25.845 C26.205 36.587 26.205 36.587 21.713 41.371 C15.858 46.92 10.034 46.033 2.338 45.996 C1.036 46.028 -0.266 46.06 -1.607 46.093 C-12.29 46.104 -12.29 46.104 -16.576 42.582 C-22.186 36.855 -21.717 30.738 -21.787 23.121 C-21.828 22.013 -21.869 20.906 -21.912 19.765 C-21.975 13.079 -21.276 9.006 -16.875 3.868 C-11.827 -0.891 -6.584 -0.002 0 0 Z " fill="#0A0A0A" transform="translate(400.286865234375,561.62939453125)"/></g><g><path d="M0 0 C1.002 -0.009 1.002 -0.009 2.025 -0.019 C3.435 -0.026 4.846 -0.023 6.256 -0.01 C8.401 0.004 10.542 -0.03 12.688 -0.068 C14.063 -0.069 15.438 -0.067 16.812 -0.062 C18.054 -0.063 19.296 -0.064 20.576 -0.065 C25.655 0.861 28.41 3.225 31.393 7.512 C32.894 12.285 32.409 17.487 32.414 22.441 C32.439 23.613 32.463 24.785 32.488 25.992 C32.526 36.931 32.526 36.931 28.039 41.566 C22.473 46.988 15.839 46.16 8.539 46.066 C7.329 46.082 6.118 46.097 4.871 46.113 C-6.464 46.063 -6.464 46.063 -10.961 41.566 C-15.674 35.541 -15.57 29.966 -15.461 22.504 C-15.476 21.441 -15.492 20.378 -15.508 19.283 C-15.477 13.199 -15.158 9.302 -10.961 4.566 C-10.399 3.866 -9.837 3.166 -9.257 2.445 C-6.115 -0.126 -4.027 0.035 0 0 Z " fill="#0A0A0A" transform="translate(393.9609375,458.43359375)"/></g><g><path d="M0 0 C1.215 -0.02 2.43 -0.04 3.682 -0.061 C14.966 -0.054 14.966 -0.054 19.562 4.438 C24.797 9.926 24.262 16.145 24.25 23.312 C24.291 24.458 24.331 25.604 24.373 26.785 C24.397 32.689 24.106 36.589 20.207 41.195 C14.494 46.944 7.372 45.693 -0.25 45.75 C-1.522 45.779 -2.793 45.808 -4.104 45.838 C-14.589 45.909 -14.589 45.909 -18.137 43.793 C-24.084 37.704 -23.957 31.67 -23.938 23.562 C-23.966 22.512 -23.994 21.461 -24.023 20.379 C-24.04 13.647 -23.258 8.419 -18.438 3.438 C-12.705 -0.791 -6.857 -0.04 0 0 Z " fill="#0A0A0A" transform="translate(402.4375,509.5625)"/></g><g><path d="M0 0 C1.263 -0.02 2.525 -0.04 3.826 -0.061 C15.397 -0.054 15.397 -0.054 20.062 4.438 C24.744 9.489 23.536 15.805 23.5 22.312 C23.53 24.213 23.53 24.213 23.561 26.152 C23.554 37.78 23.554 37.78 19.062 42.438 C14.334 46.854 8.839 45.923 2.7 45.884 C0.701 45.875 -1.298 45.905 -3.297 45.936 C-4.568 45.935 -5.839 45.934 -7.148 45.934 C-8.886 45.936 -8.886 45.936 -10.658 45.939 C-15.662 45.174 -18.689 43.034 -21.785 39.074 C-24.014 33.975 -23.407 28.477 -23.375 23 C-23.395 21.785 -23.415 20.57 -23.436 19.318 C-23.429 8.037 -23.429 8.037 -18.938 3.438 C-13.033 -0.826 -7.025 -0.039 0 0 Z " fill="#0A0A0A" transform="translate(459.9375,561.5625)"/></g><g><path d="M0 0 C2.154 -0.012 4.305 -0.061 6.458 -0.112 C7.838 -0.121 9.217 -0.128 10.597 -0.133 C11.845 -0.147 13.093 -0.16 14.379 -0.174 C19.031 0.627 20.564 2.077 23.859 5.426 C27.206 10.263 26.309 16.528 26.359 22.176 C26.4 23.331 26.441 24.486 26.484 25.676 C26.545 32.433 25.96 36.711 21.544 41.946 C16.024 46.791 9.524 45.83 2.546 45.863 C1.335 45.896 0.124 45.929 -1.124 45.963 C-8.482 46.007 -12.8 45.676 -18.141 40.426 C-21.546 35.177 -20.51 28.566 -20.516 22.551 C-20.541 21.283 -20.565 20.016 -20.591 18.711 C-20.627 7.073 -20.627 7.073 -16.141 2.426 C-11.299 -0.803 -5.668 0.015 0 0 Z " fill="#0A0A0A" transform="translate(571.141357421875,458.574462890625)"/></g><g><path d="M0 0 C2.101 -0.01 4.2 -0.041 6.301 -0.072 C7.642 -0.079 8.984 -0.084 10.326 -0.088 C11.544 -0.097 12.762 -0.107 14.017 -0.116 C17.673 0.28 19.441 0.96 22.306 3.24 C26.627 8.814 25.783 14.865 25.744 21.615 C25.774 23.425 25.774 23.425 25.804 25.271 C25.801 32.067 25.724 36.904 21.306 42.24 C15.839 46.524 8.933 45.718 2.306 45.678 C0.562 45.708 0.562 45.708 -1.217 45.738 C-11.902 45.732 -11.902 45.732 -16.694 41.24 C-22.137 35.462 -21.357 29.951 -21.319 22.365 C-21.351 21.111 -21.383 19.857 -21.416 18.564 C-21.427 8.269 -21.427 8.269 -17.78 3.92 C-12.665 -1.026 -6.704 0.019 0 0 Z " fill="#0A0A0A" transform="translate(457.693603515625,458.759765625)"/></g><g><path d="M0 0 C1.263 -0.02 2.525 -0.04 3.826 -0.061 C15.525 -0.054 15.525 -0.054 20.062 4.438 C24.23 10.252 23.54 15.965 23.5 22.875 C23.53 24.697 23.53 24.697 23.561 26.557 C23.555 36.496 23.555 36.496 21.41 40.098 C17.047 44.446 12.826 45.817 6.746 45.836 C5.57 45.84 4.394 45.844 3.182 45.848 C1.967 45.836 0.752 45.824 -0.5 45.812 C-2.328 45.83 -2.328 45.83 -4.193 45.848 C-5.956 45.842 -5.956 45.842 -7.754 45.836 C-9.354 45.831 -9.354 45.831 -10.987 45.826 C-15.79 45.194 -18.245 43.309 -21.219 39.566 C-24.013 34.205 -23.516 28.27 -23.438 22.375 C-23.453 21.217 -23.468 20.059 -23.484 18.865 C-23.435 8.128 -23.435 8.128 -18.938 3.438 C-13.037 -0.829 -7.021 -0.039 0 0 Z " fill="#0A0A0A" transform="translate(516.9375,561.5625)"/></g><g><path d="M0 0 C2.101 -0.01 4.2 -0.041 6.301 -0.072 C7.642 -0.079 8.984 -0.084 10.326 -0.088 C11.544 -0.097 12.762 -0.107 14.017 -0.116 C17.673 0.28 19.441 0.96 22.306 3.24 C26.707 8.898 25.858 15.256 25.869 22.115 C25.906 23.369 25.942 24.624 25.98 25.916 C26.029 36.231 26.029 36.231 22.521 40.498 C16.637 46.309 10.27 45.607 2.431 45.615 C1.26 45.64 0.088 45.664 -1.119 45.689 C-12.058 45.727 -12.058 45.727 -16.694 41.24 C-22.077 35.686 -21.358 29.085 -21.319 21.803 C-21.351 20.601 -21.383 19.399 -21.416 18.16 C-21.427 8.305 -21.427 8.305 -17.78 3.955 C-12.673 -1.032 -6.723 0.019 0 0 Z " fill="#0A0A0A" transform="translate(514.693603515625,458.759765625)"/></g><g><path d="M0 0 C1.16 -0.037 2.319 -0.075 3.514 -0.113 C9.936 -0.179 14.487 0.206 19.835 3.904 C24.219 8.269 23.6 13.238 23.635 19.08 C23.632 20.312 23.628 21.543 23.625 22.812 C23.641 24.04 23.657 25.268 23.674 26.533 C23.674 27.717 23.675 28.901 23.676 30.121 C23.679 31.201 23.682 32.28 23.685 33.392 C23.111 37.988 20.851 41.427 17.312 44.375 C12.357 46.027 7.216 45.678 2.026 45.725 C0.017 45.75 -1.99 45.806 -3.998 45.863 C-14.873 45.962 -14.873 45.962 -18.48 43.164 C-23.476 36.851 -23.054 30.676 -23.062 22.938 C-23.087 21.818 -23.111 20.698 -23.137 19.545 C-23.159 13.166 -22.996 9.211 -18.688 4.375 C-18.172 3.777 -17.656 3.179 -17.125 2.562 C-12.662 -1.124 -5.438 0.065 0 0 Z " fill="#0A0A0A" transform="translate(459.6875,509.625)"/></g><g><path d="M0 0 C1.744 -0.03 1.744 -0.03 3.523 -0.061 C9.974 -0.057 14.122 0.049 19 4.438 C19.598 4.953 20.196 5.469 20.812 6 C24.509 10.475 23.31 17.736 23.375 23.188 C23.431 24.939 23.431 24.939 23.488 26.727 C23.587 36.412 23.587 36.412 20.789 40.641 C14.616 46.831 7.315 45.837 -0.938 45.875 C-2.2 45.908 -3.463 45.941 -4.764 45.975 C-15.123 46.035 -15.123 46.035 -18.754 43.16 C-23.99 36.813 -23.367 31.051 -23.375 23.062 C-23.399 21.843 -23.424 20.624 -23.449 19.367 C-23.482 9.348 -23.482 9.348 -21.352 5.773 C-15.026 -0.51 -8.47 -0.052 0 0 Z " fill="#0A0A0A" transform="translate(630,509.5625)"/></g><g><path d="M0 0 C1.168 -0.029 2.336 -0.058 3.539 -0.088 C10.313 -0.138 14.877 0.004 20.25 4.312 C22.974 8.052 23.633 10.681 23.648 15.277 C23.654 16.972 23.654 16.972 23.66 18.701 C23.649 19.872 23.637 21.043 23.625 22.25 C23.637 23.417 23.648 24.584 23.66 25.787 C23.624 36.474 23.624 36.474 20.25 41.312 C14.315 46.691 6.991 45.604 -0.562 45.688 C-1.834 45.725 -3.106 45.762 -4.416 45.801 C-14.903 45.9 -14.903 45.9 -18.512 43.039 C-23.658 36.77 -23.084 31.252 -23.062 23.375 C-23.079 22.195 -23.095 21.015 -23.111 19.799 C-23.112 18.66 -23.113 17.521 -23.113 16.348 C-23.116 15.31 -23.119 14.272 -23.122 13.203 C-22.46 8.062 -19.571 4.656 -15.75 1.312 C-10.658 -0.385 -5.331 0.044 0 0 Z " fill="#0A0A0A" transform="translate(516.75,509.6875)"/></g><g><path d="M0 0 C1.15 -0.004 2.3 -0.008 3.484 -0.012 C4.686 -0 5.887 0.011 7.125 0.023 C8.326 0.012 9.528 0 10.766 -0.012 C12.49 -0.006 12.49 -0.006 14.25 0 C15.832 0.005 15.832 0.005 17.445 0.01 C20.125 0.398 20.125 0.398 21.967 1.586 C23.555 4.072 23.513 5.861 23.523 8.801 C23.529 10.383 23.529 10.383 23.535 11.998 C23.524 13.1 23.512 14.201 23.5 15.336 C23.512 16.434 23.523 17.531 23.535 18.662 C23.531 19.718 23.527 20.775 23.523 21.863 C23.52 22.829 23.517 23.794 23.513 24.789 C23.049 27.908 22.443 29.257 20.125 31.398 C17.553 31.916 17.553 31.916 14.504 31.93 C13.404 31.935 12.303 31.94 11.17 31.945 C10.021 31.93 8.872 31.914 7.688 31.898 C6.542 31.914 5.397 31.929 4.217 31.945 C3.115 31.94 2.014 31.935 0.879 31.93 C-0.128 31.925 -1.136 31.921 -2.174 31.916 C-5.646 31.251 -6.815 30.249 -8.875 27.398 C-9.377 24.789 -9.377 24.789 -9.371 21.863 C-9.372 20.807 -9.372 19.751 -9.373 18.662 C-9.353 17.564 -9.333 16.467 -9.312 15.336 C-9.32 14.234 -9.327 13.133 -9.334 11.998 C-9.271 4.017 -9.271 4.017 -7.715 1.586 C-5.098 -0.103 -3.1 0.01 0 0 Z " fill="#F5F5F5" transform="translate(509.875,465.6015625)"/></g><g><path d="M0 0 C1.652 -0.001 1.652 -0.001 3.338 -0.002 C4.483 0.018 5.629 0.038 6.809 0.059 C7.958 0.052 9.107 0.044 10.291 0.037 C18.64 0.101 18.64 0.101 21.07 1.686 C23.622 5.616 22.713 10.905 22.684 15.434 C22.714 17.08 22.714 17.08 22.744 18.76 C22.743 19.816 22.743 20.873 22.742 21.961 C22.745 23.409 22.745 23.409 22.748 24.886 C22.09 28.309 21.053 29.462 18.246 31.496 C15.545 32.014 15.545 32.014 12.492 32.027 C11.391 32.033 10.289 32.038 9.154 32.043 C8.009 32.028 6.864 32.012 5.684 31.996 C4.534 32.012 3.385 32.027 2.201 32.043 C0.551 32.035 0.551 32.035 -1.133 32.027 C-2.139 32.023 -3.145 32.018 -4.182 32.014 C-6.754 31.496 -6.754 31.496 -8.578 29.793 C-10.796 25.46 -10.224 20.766 -10.191 15.996 C-10.211 14.951 -10.231 13.905 -10.252 12.828 C-10.251 11.821 -10.251 10.815 -10.25 9.777 C-10.252 8.86 -10.254 7.943 -10.256 6.998 C-9.097 1.22 -5.426 -0.01 0 0 Z " fill="#FEFEFE" transform="translate(510.75390625,568.50390625)"/></g><g><path d="M0 0 C2.566 -0.388 2.566 -0.388 5.777 -0.398 C6.93 -0.402 8.083 -0.406 9.271 -0.41 C11.086 -0.393 11.086 -0.393 12.938 -0.375 C14.143 -0.387 15.349 -0.398 16.592 -0.41 C17.746 -0.406 18.901 -0.402 20.09 -0.398 C21.151 -0.395 22.211 -0.392 23.304 -0.388 C26 0 26 0 27.844 1.171 C29.462 3.73 29.388 5.641 29.398 8.656 C29.404 10.313 29.404 10.313 29.41 12.004 C29.399 13.158 29.387 14.311 29.375 15.5 C29.387 16.654 29.398 17.807 29.41 18.996 C29.406 20.101 29.402 21.206 29.398 22.344 C29.395 23.356 29.392 24.369 29.388 25.412 C29 28 29 28 27.844 29.831 C25.21 31.501 23.193 31.372 20.09 31.363 C18.935 31.363 17.781 31.362 16.592 31.361 C15.386 31.345 14.18 31.329 12.938 31.312 C11.123 31.317 11.123 31.317 9.271 31.322 C0.267 31.267 0.267 31.267 -2 29 C-2.259 26.434 -2.259 26.434 -2.266 23.223 C-2.268 22.07 -2.271 20.917 -2.273 19.729 C-2.266 18.519 -2.258 17.309 -2.25 16.062 C-2.258 14.857 -2.265 13.651 -2.273 12.408 C-2.271 11.254 -2.268 10.099 -2.266 8.91 C-2.263 7.849 -2.261 6.789 -2.259 5.696 C-2 3 -2 3 0 0 Z " fill="#FEFEFE" transform="translate(447,569)"/></g><g><path d="M0 0 C1.21 0.003 2.42 0.006 3.666 0.01 C5.475 -0.014 5.475 -0.014 7.32 -0.039 C9.052 -0.04 9.052 -0.04 10.818 -0.041 C11.879 -0.044 12.94 -0.047 14.033 -0.05 C16.729 0.322 16.729 0.322 18.573 1.507 C20.157 3.995 20.117 5.785 20.127 8.725 C20.133 10.307 20.133 10.307 20.139 11.922 C20.127 13.023 20.115 14.125 20.104 15.26 C20.115 16.357 20.127 17.455 20.139 18.586 C20.135 19.642 20.131 20.699 20.127 21.787 C20.124 22.753 20.12 23.718 20.117 24.713 C19.651 27.841 19.067 29.186 16.729 31.322 C14.033 31.824 14.033 31.824 10.818 31.818 C9.087 31.819 9.087 31.819 7.32 31.82 C6.114 31.8 4.908 31.78 3.666 31.76 C1.851 31.77 1.851 31.77 0 31.781 C-6.664 31.733 -6.664 31.733 -9.271 31.322 C-11.579 27.861 -11.528 26.493 -11.537 22.412 C-11.541 20.681 -11.541 20.681 -11.545 18.914 C-11.537 17.708 -11.529 16.502 -11.521 15.26 C-11.529 14.05 -11.537 12.84 -11.545 11.594 C-11.542 10.441 -11.54 9.288 -11.537 8.1 C-11.535 7.04 -11.533 5.98 -11.53 4.888 C-10.886 -1.504 -5.021 0.031 0 0 Z " fill="#FEFEFE" transform="translate(456.271484375,465.677734375)"/></g><g><path d="M0 0 C1.106 0.001 2.212 0.001 3.352 0.002 C4.501 0.018 5.651 0.034 6.836 0.051 C7.994 0.048 9.151 0.044 10.344 0.041 C18.944 0.096 18.944 0.096 21.211 2.363 C21.47 4.929 21.47 4.929 21.477 8.141 C21.48 9.87 21.48 9.87 21.484 11.635 C21.477 12.845 21.469 14.054 21.461 15.301 C21.469 16.507 21.476 17.713 21.484 18.955 C21.482 20.109 21.479 21.264 21.477 22.453 C21.474 23.514 21.472 24.575 21.47 25.668 C21.211 28.363 21.211 28.363 19.211 31.363 C16.645 31.751 16.645 31.751 13.434 31.762 C12.281 31.766 11.127 31.769 9.939 31.773 C8.125 31.756 8.125 31.756 6.273 31.738 C5.068 31.75 3.862 31.761 2.619 31.773 C0.888 31.768 0.888 31.768 -0.879 31.762 C-1.94 31.758 -3.001 31.755 -4.094 31.751 C-6.789 31.363 -6.789 31.363 -8.631 30.192 C-11.216 26.11 -10.255 20.535 -10.227 15.863 C-10.247 14.71 -10.267 13.556 -10.287 12.367 C-10.286 11.262 -10.286 10.158 -10.285 9.02 C-10.287 8.007 -10.289 6.994 -10.291 5.951 C-9.789 3.363 -9.789 3.363 -8.12 1.532 C-5.237 0.086 -3.221 -0.009 0 0 Z " fill="#FEFEFE" transform="translate(396.7890625,568.63671875)"/></g><g><path d="M0 0 C1.732 0.001 1.732 0.001 3.498 0.002 C4.704 0.018 5.91 0.034 7.152 0.051 C8.967 0.046 8.967 0.046 10.818 0.041 C19.823 0.096 19.823 0.096 22.09 2.363 C22.549 6.658 22.414 10.985 22.402 15.301 C22.418 16.507 22.435 17.713 22.451 18.955 C22.452 20.109 22.452 21.264 22.453 22.453 C22.456 23.514 22.459 24.575 22.462 25.668 C22.09 28.363 22.09 28.363 20.921 30.206 C16.836 32.788 11.264 31.83 6.59 31.801 C4.859 31.831 4.859 31.831 3.094 31.861 C1.437 31.86 1.437 31.86 -0.254 31.859 C-1.266 31.861 -2.279 31.863 -3.322 31.865 C-5.91 31.363 -5.91 31.363 -7.739 29.678 C-9.155 26.879 -9.298 24.96 -9.309 21.828 C-9.312 20.772 -9.316 19.715 -9.32 18.627 C-9.309 17.529 -9.297 16.432 -9.285 15.301 C-9.297 14.199 -9.308 13.098 -9.32 11.963 C-9.316 10.908 -9.313 9.853 -9.309 8.766 C-9.305 7.801 -9.302 6.837 -9.298 5.844 C-8.91 3.363 -8.91 3.363 -7.755 1.548 C-5.122 -0.143 -3.113 -0.009 0 0 Z " fill="#FEFEFE" transform="translate(566.91015625,560.63671875)"/></g><g><path d="M0 0 C1.732 0.001 1.732 0.001 3.498 0.002 C4.704 0.018 5.91 0.034 7.152 0.051 C8.967 0.046 8.967 0.046 10.818 0.041 C19.823 0.096 19.823 0.096 22.09 2.363 C22.349 4.929 22.349 4.929 22.355 8.141 C22.359 9.87 22.359 9.87 22.363 11.635 C22.356 12.845 22.348 14.054 22.34 15.301 C22.348 16.507 22.355 17.713 22.363 18.955 C22.361 20.109 22.358 21.264 22.355 22.453 C22.353 23.514 22.351 24.575 22.349 25.668 C22.09 28.363 22.09 28.363 20.09 31.363 C15.816 32.036 11.473 31.826 7.152 31.801 C5.343 31.831 5.343 31.831 3.498 31.861 C1.767 31.86 1.767 31.86 0 31.859 C-1.061 31.861 -2.122 31.863 -3.215 31.865 C-5.91 31.363 -5.91 31.363 -7.755 29.678 C-9.151 26.881 -9.298 24.949 -9.309 21.828 C-9.312 20.772 -9.316 19.715 -9.32 18.627 C-9.309 17.529 -9.297 16.432 -9.285 15.301 C-9.297 14.199 -9.308 13.098 -9.32 11.963 C-9.316 10.908 -9.313 9.853 -9.309 8.766 C-9.305 7.801 -9.302 6.837 -9.298 5.844 C-8.91 3.363 -8.91 3.363 -7.755 1.548 C-5.122 -0.143 -3.113 -0.009 0 0 Z " fill="#FEFEFE" transform="translate(395.91015625,465.63671875)"/></g><g><path d="M0 0 C1.732 0.001 1.732 0.001 3.498 0.002 C4.704 0.018 5.91 0.034 7.152 0.051 C8.967 0.046 8.967 0.046 10.818 0.041 C19.823 0.096 19.823 0.096 22.09 2.363 C22.549 6.658 22.414 10.985 22.402 15.301 C22.418 16.507 22.435 17.713 22.451 18.955 C22.452 20.109 22.452 21.264 22.453 22.453 C22.456 23.514 22.459 24.575 22.462 25.668 C22.09 28.363 22.09 28.363 20.921 30.206 C16.836 32.788 11.264 31.83 6.59 31.801 C4.859 31.831 4.859 31.831 3.094 31.861 C1.437 31.86 1.437 31.86 -0.254 31.859 C-1.266 31.861 -2.279 31.863 -3.322 31.865 C-5.91 31.363 -5.91 31.363 -7.739 29.678 C-9.155 26.879 -9.298 24.96 -9.309 21.828 C-9.312 20.772 -9.316 19.715 -9.32 18.627 C-9.309 17.529 -9.297 16.432 -9.285 15.301 C-9.297 14.199 -9.308 13.098 -9.32 11.963 C-9.316 10.908 -9.313 9.853 -9.309 8.766 C-9.305 7.801 -9.302 6.837 -9.298 5.844 C-8.91 3.363 -8.91 3.363 -7.755 1.548 C-5.122 -0.143 -3.113 -0.009 0 0 Z " fill="#FEFEFE" transform="translate(566.91015625,465.63671875)"/></g><g><path d="M0 0 C1.732 0.001 1.732 0.001 3.498 0.002 C4.704 0.018 5.91 0.034 7.152 0.051 C8.967 0.046 8.967 0.046 10.818 0.041 C19.823 0.096 19.823 0.096 22.09 2.363 C22.549 6.658 22.414 10.985 22.402 15.301 C22.418 16.507 22.435 17.713 22.451 18.955 C22.452 20.109 22.452 21.264 22.453 22.453 C22.456 23.514 22.459 24.575 22.462 25.668 C22.09 28.363 22.09 28.363 20.921 30.206 C16.836 32.788 11.264 31.83 6.59 31.801 C4.859 31.831 4.859 31.831 3.094 31.861 C1.437 31.86 1.437 31.86 -0.254 31.859 C-1.266 31.861 -2.279 31.863 -3.322 31.865 C-5.91 31.363 -5.91 31.363 -7.739 29.678 C-9.155 26.879 -9.298 24.96 -9.309 21.828 C-9.312 20.772 -9.316 19.715 -9.32 18.627 C-9.309 17.529 -9.297 16.432 -9.285 15.301 C-9.297 14.199 -9.308 13.098 -9.32 11.963 C-9.316 10.908 -9.313 9.853 -9.309 8.766 C-9.305 7.801 -9.302 6.837 -9.298 5.844 C-8.91 3.363 -8.91 3.363 -7.755 1.548 C-5.122 -0.143 -3.113 -0.009 0 0 Z " fill="#FEFEFE" transform="translate(622.91015625,465.63671875)"/></g><g><path d="M0 0 C1.15 -0.004 2.3 -0.008 3.484 -0.012 C4.686 -0 5.887 0.011 7.125 0.023 C8.326 0.012 9.528 0 10.766 -0.012 C12.49 -0.006 12.49 -0.006 14.25 0 C15.832 0.005 15.832 0.005 17.445 0.01 C20.125 0.398 20.125 0.398 21.967 1.599 C23.527 4.022 23.513 5.71 23.523 8.582 C23.529 10.097 23.529 10.097 23.535 11.643 C23.524 12.696 23.512 13.75 23.5 14.836 C23.512 15.886 23.523 16.936 23.535 18.018 C23.531 19.029 23.527 20.04 23.523 21.082 C23.52 22.006 23.517 22.929 23.513 23.881 C23.04 26.952 22.414 28.288 20.125 30.398 C17.445 30.9 17.445 30.9 14.25 30.895 C13.1 30.895 11.95 30.896 10.766 30.896 C8.964 30.867 8.964 30.867 7.125 30.836 C5.323 30.847 5.323 30.847 3.484 30.857 C-5.262 30.794 -5.262 30.794 -7.717 29.211 C-9.31 26.717 -9.263 24.91 -9.273 21.961 C-9.277 20.901 -9.281 19.842 -9.285 18.75 C-9.274 17.644 -9.262 16.538 -9.25 15.398 C-9.262 14.292 -9.273 13.186 -9.285 12.047 C-9.281 10.987 -9.277 9.928 -9.273 8.836 C-9.27 7.865 -9.267 6.895 -9.263 5.895 C-8.875 3.398 -8.875 3.398 -7.717 1.583 C-5.098 -0.101 -3.099 0.01 0 0 Z " fill="#FEFEFE" transform="translate(622.875,517.6015625)"/></g><g><path d="M0 0 C1.21 0.003 2.42 0.006 3.666 0.01 C5.475 -0.014 5.475 -0.014 7.32 -0.039 C9.052 -0.04 9.052 -0.04 10.818 -0.041 C11.879 -0.044 12.94 -0.047 14.033 -0.05 C16.729 0.322 16.729 0.322 18.575 1.505 C20.163 4.007 20.101 5.807 20.092 8.76 C20.091 9.819 20.091 10.879 20.09 11.971 C20.074 13.077 20.058 14.183 20.041 15.322 C20.046 16.981 20.046 16.981 20.051 18.674 C19.996 26.922 19.996 26.922 17.729 30.322 C15.055 30.695 15.055 30.695 11.697 30.686 C10.495 30.685 9.292 30.684 8.053 30.684 C6.16 30.659 6.16 30.659 4.229 30.635 C2.967 30.638 1.705 30.641 0.404 30.645 C-9.005 30.589 -9.005 30.589 -11.271 28.322 C-11.53 25.74 -11.53 25.74 -11.537 22.51 C-11.54 21.352 -11.542 20.195 -11.545 19.002 C-11.537 17.788 -11.529 16.573 -11.521 15.322 C-11.529 14.108 -11.537 12.894 -11.545 11.643 C-11.542 10.485 -11.54 9.327 -11.537 8.135 C-11.535 7.069 -11.533 6.003 -11.53 4.904 C-10.888 -1.503 -5.037 0.031 0 0 Z " fill="#FEFEFE" transform="translate(456.271484375,517.677734375)"/></g><g><path d="M0 0 C1.73 -0.004 1.73 -0.004 3.494 -0.008 C5.309 0.004 5.309 0.004 7.16 0.016 C8.366 0.008 9.572 0 10.814 -0.008 C11.969 -0.005 13.123 -0.003 14.312 0 C15.373 0.002 16.434 0.005 17.527 0.007 C20.223 0.266 20.223 0.266 23.223 2.266 C23.611 4.74 23.611 4.74 23.621 7.824 C23.627 9.486 23.627 9.486 23.633 11.182 C23.621 12.344 23.61 13.506 23.598 14.703 C23.609 15.861 23.621 17.02 23.633 18.213 C23.629 19.322 23.625 20.431 23.621 21.574 C23.618 22.593 23.614 23.612 23.611 24.662 C23.223 27.266 23.223 27.266 22.067 29.099 C19.433 30.765 17.415 30.638 14.312 30.629 C13.158 30.628 12.004 30.628 10.814 30.627 C9.609 30.611 8.403 30.595 7.16 30.578 C5.345 30.583 5.345 30.583 3.494 30.588 C-5.51 30.533 -5.51 30.533 -7.777 28.266 C-8.036 25.684 -8.036 25.684 -8.043 22.453 C-8.046 21.296 -8.048 20.138 -8.051 18.945 C-8.043 17.731 -8.035 16.517 -8.027 15.266 C-8.035 14.051 -8.043 12.837 -8.051 11.586 C-8.048 10.428 -8.046 9.271 -8.043 8.078 C-8.041 7.012 -8.038 5.946 -8.036 4.848 C-7.513 -0.37 -4.479 0.01 0 0 Z " fill="#FEFEFE" transform="translate(509.77734375,517.734375)"/></g><g><path d="M0 0 C1.732 0.001 1.732 0.001 3.498 0.002 C4.704 0.018 5.91 0.034 7.152 0.051 C8.967 0.046 8.967 0.046 10.818 0.041 C19.823 0.096 19.823 0.096 22.09 2.363 C22.349 4.838 22.349 4.838 22.355 7.922 C22.359 9.584 22.359 9.584 22.363 11.279 C22.356 12.441 22.348 13.603 22.34 14.801 C22.348 15.959 22.355 17.117 22.363 18.311 C22.361 19.42 22.358 20.529 22.355 21.672 C22.353 22.691 22.351 23.71 22.349 24.76 C22.09 27.363 22.09 27.363 20.09 30.363 C17.416 30.751 17.416 30.751 14.059 30.762 C12.255 30.768 12.255 30.768 10.414 30.773 C9.152 30.762 7.89 30.75 6.59 30.738 C4.697 30.756 4.697 30.756 2.766 30.773 C1.563 30.77 0.36 30.766 -0.879 30.762 C-1.987 30.758 -3.095 30.755 -4.236 30.751 C-5.119 30.623 -6.001 30.495 -6.91 30.363 C-10.025 25.691 -9.239 20.857 -9.223 15.363 C-9.239 14.257 -9.255 13.151 -9.271 12.012 C-9.272 10.952 -9.273 9.893 -9.273 8.801 C-9.276 7.83 -9.279 6.859 -9.282 5.859 C-8.91 3.363 -8.91 3.363 -7.757 1.546 C-5.122 -0.141 -3.113 -0.009 0 0 Z " fill="#FEFEFE" transform="translate(395.91015625,517.63671875)"/></g><g><path d="M0 0 C1.732 0.001 1.732 0.001 3.498 0.002 C4.704 0.018 5.91 0.034 7.152 0.051 C8.967 0.046 8.967 0.046 10.818 0.041 C19.823 0.096 19.823 0.096 22.09 2.363 C22.349 4.945 22.349 4.945 22.355 8.176 C22.359 9.912 22.359 9.912 22.363 11.684 C22.356 12.898 22.348 14.112 22.34 15.363 C22.348 16.578 22.355 17.792 22.363 19.043 C22.361 20.201 22.358 21.358 22.355 22.551 C22.353 23.617 22.351 24.683 22.349 25.781 C22.09 28.363 22.09 28.363 20.09 30.363 C15.795 30.823 11.469 30.687 7.152 30.676 C5.343 30.7 5.343 30.7 3.498 30.725 C2.344 30.725 1.189 30.726 0 30.727 C-1.061 30.73 -2.122 30.733 -3.215 30.736 C-5.91 30.363 -5.91 30.363 -7.755 29.18 C-9.343 26.683 -9.298 24.875 -9.309 21.926 C-9.312 20.866 -9.316 19.807 -9.32 18.715 C-9.309 17.609 -9.297 16.503 -9.285 15.363 C-9.297 14.257 -9.308 13.151 -9.32 12.012 C-9.316 10.952 -9.313 9.893 -9.309 8.801 C-9.305 7.83 -9.302 6.859 -9.298 5.859 C-8.91 3.363 -8.91 3.363 -7.755 1.546 C-5.122 -0.142 -3.112 -0.009 0 0 Z " fill="#FEFEFE" transform="translate(566.91015625,517.63671875)"/></g><g><path d="M0 0 C2.18 1.593 2.906 2.479 3.388 5.156 C3.393 5.99 3.398 6.824 3.404 7.683 C3.417 8.631 3.429 9.579 3.442 10.556 C3.44 11.578 3.437 12.599 3.434 13.652 C3.439 14.704 3.444 15.756 3.449 16.839 C3.456 19.064 3.455 21.289 3.446 23.514 C3.438 26.921 3.466 30.326 3.498 33.732 C3.5 35.893 3.499 38.054 3.496 40.215 C3.507 41.235 3.519 42.255 3.53 43.305 C3.461 50.339 3.461 50.339 1.156 53.643 C-1.812 55.511 -3.557 55.574 -7 55 C-9.154 53.627 -9.154 53.627 -11 51 C-11.608 47.493 -11.56 44.02 -11.531 40.469 C-11.535 39.441 -11.539 38.413 -11.543 37.353 C-11.546 35.181 -11.538 33.009 -11.521 30.837 C-11.5 27.512 -11.521 24.189 -11.547 20.863 C-11.544 18.753 -11.539 16.642 -11.531 14.531 C-11.539 13.536 -11.547 12.542 -11.556 11.516 C-11.463 4.672 -11.463 4.672 -9.189 1.369 C-5.993 -0.63 -3.685 -0.469 0 0 Z " fill="#F5F5F5" transform="translate(460,259)"/></g><g><path d="M0 0 C2.576 1.017 3.656 1.792 5.375 3.938 C5.807 6.049 5.807 6.049 5.887 8.513 C5.923 9.438 5.959 10.362 5.996 11.315 C6.029 12.81 6.029 12.81 6.062 14.336 C6.107 15.877 6.107 15.877 6.153 17.448 C6.211 19.622 6.261 21.796 6.303 23.97 C6.375 27.294 6.489 30.615 6.605 33.938 C6.656 36.049 6.705 38.161 6.75 40.273 C6.788 41.266 6.827 42.259 6.866 43.282 C6.92 47.997 6.933 50.189 4.043 54.065 C1.375 55.938 1.375 55.938 -1.688 56.562 C-4.625 55.938 -4.625 55.938 -6.787 54.063 C-9.472 49.498 -9.114 45.508 -8.973 40.309 C-8.957 39.282 -8.941 38.255 -8.924 37.198 C-8.884 35.031 -8.834 32.865 -8.774 30.699 C-8.688 27.383 -8.649 24.069 -8.615 20.752 C-8.571 18.646 -8.523 16.54 -8.473 14.434 C-8.464 13.442 -8.455 12.45 -8.447 11.428 C-8.206 4.584 -8.206 4.584 -5.236 1.278 C-2.625 -0.062 -2.625 -0.062 0 0 Z " fill="#FEFEFE" transform="translate(575.625,258.0625)"/></g><g><path d="M0 0 C2.145 1.574 2.895 2.489 3.432 5.111 C3.459 5.925 3.485 6.738 3.512 7.576 C3.548 8.5 3.584 9.425 3.621 10.378 C3.654 11.873 3.654 11.873 3.688 13.398 C3.732 14.939 3.732 14.939 3.778 16.511 C3.836 18.684 3.886 20.858 3.928 23.032 C4 26.356 4.114 29.677 4.23 33 C4.281 35.112 4.33 37.224 4.375 39.336 C4.413 40.329 4.452 41.322 4.491 42.345 C4.545 47.059 4.558 49.252 1.668 53.127 C-1 55 -1 55 -4.062 55.625 C-7 55 -7 55 -9.166 53.127 C-11.853 48.545 -11.451 44.547 -11.277 39.336 C-11.257 38.307 -11.236 37.278 -11.214 36.218 C-11.166 34.047 -11.107 31.877 -11.039 29.707 C-10.938 26.38 -10.874 23.054 -10.814 19.727 C-10.763 17.617 -10.709 15.508 -10.652 13.398 C-10.633 12.402 -10.614 11.405 -10.595 10.378 C-10.562 9.453 -10.53 8.528 -10.496 7.576 C-10.473 6.762 -10.45 5.949 -10.426 5.111 C-9.27 -0.621 -5.104 -0.547 0 0 Z " fill="#FEFEFE" transform="translate(647,259)"/></g><g><path d="M0 0 C3.032 0.968 4.039 1.474 5.938 3.938 C6.325 6.138 6.325 6.138 6.342 8.729 C6.354 9.7 6.367 10.671 6.38 11.671 C6.377 12.718 6.374 13.765 6.371 14.844 C6.376 15.92 6.382 16.996 6.387 18.105 C6.393 20.381 6.392 22.658 6.384 24.934 C6.375 28.424 6.404 31.912 6.436 35.402 C6.437 37.612 6.437 39.822 6.434 42.031 C6.45 43.602 6.45 43.602 6.468 45.204 C6.458 46.175 6.449 47.146 6.439 48.146 C6.439 49.429 6.439 49.429 6.439 50.737 C5.938 52.938 5.938 52.938 4.094 54.706 C1.112 56.409 -0.684 56.501 -4.062 55.938 C-6.574 53.774 -7.901 52.019 -8.397 48.696 C-8.496 45.89 -8.46 43.115 -8.375 40.309 C-8.357 39.282 -8.338 38.255 -8.319 37.198 C-8.275 35.031 -8.221 32.865 -8.157 30.699 C-8.063 27.384 -8.012 24.069 -7.965 20.752 C-7.917 18.646 -7.866 16.54 -7.812 14.434 C-7.799 13.442 -7.785 12.45 -7.771 11.428 C-7.53 4.608 -7.53 4.608 -5.207 1.278 C-3.062 -0.062 -3.062 -0.062 0 0 Z " fill="#FEFEFE" transform="translate(385.0625,258.0625)"/></g></svg>