<svg width="22" height="22" viewBox="0 0 22 22" fill="none" xmlns="http://www.w3.org/2000/svg">
<path d="M1.83334 7.67913C1.83334 7.358 1.83334 7.19744 1.84674 7.0622C1.97597 5.75784 3.00783 4.72598 4.31219 4.59675C4.44743 4.58334 4.61667 4.58334 4.95512 4.58334C5.08553 4.58334 5.15074 4.58334 5.20611 4.57999C5.91306 4.53717 6.53212 4.09098 6.7963 3.43384C6.81699 3.38238 6.83633 3.32437 6.875 3.20834C6.91368 3.09232 6.93302 3.03431 6.95371 2.98284C7.21788 2.3257 7.83694 1.87952 8.5439 1.8367C8.59926 1.83334 8.66041 1.83334 8.78271 1.83334H13.2173C13.3396 1.83334 13.4008 1.83334 13.4561 1.8367C14.1631 1.87952 14.7822 2.3257 15.0463 2.98284C15.067 3.03431 15.0863 3.09232 15.125 3.20834C15.1637 3.32437 15.183 3.38238 15.2037 3.43384C15.4678 4.09098 16.087 4.53717 16.7939 4.57999C16.8493 4.58334 16.9144 4.58334 17.0449 4.58334C17.3833 4.58334 17.5526 4.58334 17.6878 4.59675C18.9921 4.72598 20.024 5.75784 20.1533 7.0622C20.1667 7.19744 20.1667 7.358 20.1667 7.67913V14.85C20.1667 16.3902 20.1667 17.1602 19.8669 17.7485C19.6033 18.266 19.1826 18.6866 18.6652 18.9503C18.0769 19.25 17.3069 19.25 15.7667 19.25H6.23334C4.69319 19.25 3.92312 19.25 3.33486 18.9503C2.81741 18.6866 2.39672 18.266 2.13307 17.7485C1.83334 17.1602 1.83334 16.3902 1.83334 14.85V7.67913Z" stroke="black" stroke-width="1.5" stroke-linecap="round" stroke-linejoin="round"/>
<path d="M11 15.125C13.025 15.125 14.6667 13.4833 14.6667 11.4583C14.6667 9.43331 13.025 7.79166 11 7.79166C8.97496 7.79166 7.33334 9.43331 7.33334 11.4583C7.33334 13.4833 8.97496 15.125 11 15.125Z" stroke="black" stroke-width="1.5" stroke-linecap="round" stroke-linejoin="round"/>
</svg>
