<svg width="22" height="22" viewBox="0 0 22 22" fill="none" xmlns="http://www.w3.org/2000/svg">
<path d="M18.7917 6.67136L11 11.0001M11 11.0001L3.20831 6.67136M11 11.0001V19.7084M19.25 14.7204V7.27976C19.25 6.96567 19.25 6.80863 19.2037 6.66856C19.1628 6.54464 19.0958 6.4309 19.0074 6.33494C18.9074 6.22646 18.7702 6.15019 18.4956 5.99766L11.7123 2.22914C11.4523 2.08471 11.3223 2.0125 11.1847 1.98418C11.0628 1.95913 10.9372 1.95913 10.8154 1.98418C10.6777 2.0125 10.5477 2.08471 10.2877 2.22914L3.50439 5.99766C3.22983 6.15019 3.09255 6.22646 2.99258 6.33494C2.90415 6.4309 2.83722 6.54464 2.79627 6.66856C2.75 6.80863 2.75 6.96567 2.75 7.27976V14.7204C2.75 15.0345 2.75 15.1916 2.79627 15.3316C2.83722 15.4556 2.90415 15.5693 2.99258 15.6652C3.09255 15.7737 3.22983 15.85 3.50439 16.0025L10.2877 19.7711C10.5477 19.9155 10.6777 19.9877 10.8154 20.016C10.9372 20.0411 11.0628 20.0411 11.1847 20.016C11.3223 19.9877 11.4523 19.9155 11.7123 19.7711L18.4956 16.0025C18.7702 15.85 18.9074 15.7737 19.0074 15.6652C19.0958 15.5693 19.1628 15.4556 19.2037 15.3316C19.25 15.1916 19.25 15.0345 19.25 14.7204Z" stroke="black" stroke-width="1.5" stroke-linecap="round" stroke-linejoin="round"/>
</svg>
