<svg width="24" height="24" viewBox="0 0 24 24" fill="none" xmlns="http://www.w3.org/2000/svg">
<g clip-path="url(#clip0_2176_128)">
<path d="M14 12.5H13V13.5V21H11V13.5V12.5H10H8V10.5H10H11V9.5V6.7C11 5.39585 11.4075 4.49954 11.9987 3.92759C12.5959 3.34985 13.4873 3 14.643 3C15.33 3 15.9932 3.02804 16.5 3.05946V4.5H16C14.8786 4.5 13.9495 4.76972 13.4205 5.55519C13.1782 5.91511 13.0825 6.29995 13.0399 6.62158C12.9999 6.92374 12.9999 7.23437 13 7.47405C13 7.4828 13 7.49145 13 7.5V9.5V10.5H14H16.2192L15.7192 12.5H14Z" stroke="black" stroke-width="2"/>
</g>
<defs>
<clipPath id="clip0_2176_128">
<rect width="24" height="24" fill="white"/>
</clipPath>
</defs>
</svg>
