<svg width="22" height="22" viewBox="0 0 22 22" fill="none" xmlns="http://www.w3.org/2000/svg">
<path d="M14.85 19.25H6.35376C5.79842 19.25 5.52076 19.25 5.39218 19.1402C5.28062 19.0449 5.22142 18.9019 5.23293 18.7557C5.24619 18.5872 5.44253 18.3908 5.83522 17.9981L13.6296 10.2038C13.9926 9.84078 14.1741 9.65919 14.3834 9.59127C14.5675 9.53141 14.7659 9.53141 14.9499 9.59127C15.1592 9.65919 15.3408 9.84078 15.7038 10.2038L19.25 13.75V14.85M14.85 19.25C16.3902 19.25 17.1602 19.25 17.7485 18.9503C18.266 18.6866 18.6866 18.266 18.9503 17.7485C19.25 17.1602 19.25 16.3902 19.25 14.85M14.85 19.25H7.15C5.60985 19.25 4.83978 19.25 4.25153 18.9503C3.73408 18.6866 3.31338 18.266 3.04973 17.7485C2.75 17.1602 2.75 16.3902 2.75 14.85V7.15C2.75 5.60985 2.75 4.83978 3.04973 4.25153C3.31338 3.73408 3.73408 3.31338 4.25153 3.04973C4.83978 2.75 5.60985 2.75 7.15 2.75H14.85C16.3902 2.75 17.1602 2.75 17.7485 3.04973C18.266 3.31338 18.6866 3.73408 18.9503 4.25153C19.25 4.83978 19.25 5.60985 19.25 7.15V14.85M9.625 7.79167C9.625 8.80419 8.80419 9.625 7.79167 9.625C6.77914 9.625 5.95833 8.80419 5.95833 7.79167C5.95833 6.77914 6.77914 5.95833 7.79167 5.95833C8.80419 5.95833 9.625 6.77914 9.625 7.79167Z" stroke="black" stroke-width="1.5" stroke-linecap="round" stroke-linejoin="round"/>
</svg>
