<svg width="22" height="22" viewBox="0 0 22 22" fill="none" xmlns="http://www.w3.org/2000/svg">
<path d="M16.5 6.41665V4.76665C16.5 3.73989 16.5 3.2265 16.3002 2.83433C16.1244 2.48936 15.8439 2.2089 15.499 2.03314C15.1069 1.83331 14.5934 1.83331 13.5667 1.83331H8.43334C7.40658 1.83331 6.89319 1.83331 6.50102 2.03314C6.15605 2.2089 5.87559 2.48936 5.69983 2.83433C5.5 3.2265 5.5 3.73989 5.5 4.76665V6.41665M5.5 16.5C4.64753 16.5 4.22129 16.5 3.87158 16.4063C2.92258 16.152 2.18132 15.4107 1.92704 14.4618C1.83334 14.1121 1.83334 13.6858 1.83334 12.8333V10.8166C1.83334 9.27646 1.83334 8.50643 2.13307 7.91817C2.39672 7.40072 2.81741 6.98003 3.33486 6.71638C3.92312 6.41665 4.69319 6.41665 6.23334 6.41665H15.7667C17.3069 6.41665 18.0769 6.41665 18.6652 6.71638C19.1826 6.98003 19.6033 7.40072 19.8669 7.91817C20.1667 8.50643 20.1667 9.27646 20.1667 10.8166V12.8333C20.1667 13.6858 20.1667 14.1121 20.073 14.4618C19.8187 15.4107 19.0774 16.152 18.1285 16.4063C17.7788 16.5 17.3525 16.5 16.5 16.5M13.75 9.62498H16.5M8.43334 20.1666H13.5667C14.5934 20.1666 15.1069 20.1666 15.499 19.9668C15.8439 19.7911 16.1244 19.5106 16.3002 19.1656C16.5 18.7735 16.5 18.2601 16.5 17.2333V15.7666C16.5 14.7399 16.5 14.2265 16.3002 13.8343C16.1244 13.4894 15.8439 13.2089 15.499 13.0331C15.1069 12.8333 14.5934 12.8333 13.5667 12.8333H8.43334C7.40658 12.8333 6.89319 12.8333 6.50102 13.0331C6.15605 13.2089 5.87559 13.4894 5.69983 13.8343C5.5 14.2265 5.5 14.7399 5.5 15.7666V17.2333C5.5 18.2601 5.5 18.7735 5.69983 19.1656C5.87559 19.5106 6.15605 19.7911 6.50102 19.9668C6.89319 20.1666 7.40657 20.1666 8.43334 20.1666Z" stroke="black" stroke-width="1.5" stroke-linecap="round" stroke-linejoin="round"/>
</svg>
