<svg width="22" height="22" viewBox="0 0 22 22" fill="none" xmlns="http://www.w3.org/2000/svg">
<path d="M7.87417 12.3841L14.135 16.0325M14.1258 5.96748L7.87417 9.61581M19.25 4.58331C19.25 6.10209 18.0188 7.33331 16.5 7.33331C14.9812 7.33331 13.75 6.10209 13.75 4.58331C13.75 3.06453 14.9812 1.83331 16.5 1.83331C18.0188 1.83331 19.25 3.06453 19.25 4.58331ZM8.25 11C8.25 12.5188 7.01878 13.75 5.5 13.75C3.98122 13.75 2.75 12.5188 2.75 11C2.75 9.48115 3.98122 8.24998 5.5 8.24998C7.01878 8.24998 8.25 9.48115 8.25 11ZM19.25 17.4166C19.25 18.9355 18.0188 20.1666 16.5 20.1666C14.9812 20.1666 13.75 18.9355 13.75 17.4166C13.75 15.8978 14.9812 14.6666 16.5 14.6666C18.0188 14.6666 19.25 15.8978 19.25 17.4166Z" stroke="black" stroke-width="1.5" stroke-linecap="round" stroke-linejoin="round"/>
</svg>
