<svg width="18" height="18" viewBox="0 0 18 18" fill="none" xmlns="http://www.w3.org/2000/svg">
<g clip-path="url(#clip0_371_1122)">
<path d="M4.05 0.899902H0.900002L13.95 17.0999H17.1L4.05 0.899902Z" fill="white" stroke="#323232" stroke-width="1.35" stroke-linecap="round" stroke-linejoin="round"/>
<path d="M0.554504 15.8546C0.115163 16.294 0.115163 17.0062 0.554504 17.4456C0.993841 17.8849 1.70616 17.8849 2.14549 17.4456L0.554504 15.8546ZM17.4455 2.14559C17.8848 1.70625 17.8848 0.993941 17.4455 0.554603C17.0061 0.115263 16.2939 0.115263 15.8545 0.554603L17.4455 2.14559ZM2.14549 17.4456L8.89549 10.6956L7.30451 9.10459L0.554504 15.8546L2.14549 17.4456ZM10.6955 8.89559L17.4455 2.14559L15.8545 0.554603L9.10449 7.30461L10.6955 8.89559Z" fill="#323232"/>
</g>
<defs>
<clipPath id="clip0_371_1122">
<rect width="18" height="18" fill="white"/>
</clipPath>
</defs>
</svg>
